<svg width="24" height="25" fill="none" xmlns="http://www.w3.org/2000/svg"><path d="M4.503 3.808a3.75 3.75 0 117.5 0 3.75 3.75 0 117.5 0v.01c0 .104 0 .404-.057.74h3.057a1.5 1.5 0 011.5 1.5v3a1.5 1.5 0 01-1.5 1.5v11.25a2.25 2.25 0 01-2.25 2.25h-16.5a2.25 2.25 0 01-2.25-2.25v-11.25a1.5 1.5 0 01-1.5-1.5v-3a1.5 1.5 0 011.5-1.5H4.56a4.451 4.451 0 01-.057-.74v-.01zm1.602.75h4.398v-.75a2.251 2.251 0 00-4.329-.86 2.25 2.25 0 00-.171.86c0 .128.003.411.067.645.01.036.021.071.035.105zm7.398 0H17.9a.842.842 0 00.034-.105c.065-.234.068-.517.068-.645a2.25 2.25 0 10-4.5 0v.75zm-12 1.5v3h9v-3h-9zm12 0v3h9v-3h-9zm7.5 4.5h-7.5v12h6.75a.75.75 0 00.75-.75v-11.25zm-10.5 12v-12h-7.5v11.25a.75.75 0 00.75.75h6.75z" fill="#212529"/></svg>