<svg width="16" height="16" viewBox="0 0 16 16" fill="none" xmlns="http://www.w3.org/2000/svg">
<g id="icon-wrapper">
<path id="Union" fill-rule="evenodd" clip-rule="evenodd" d="M11.3537 1.64494C11.4002 1.69139 11.4372 1.74656 11.4624 1.80731C11.4876 1.86805 11.5006 1.93317 11.5006 1.99894C11.5006 2.06471 11.4876 2.12983 11.4624 2.19057C11.4372 2.25132 11.4002 2.3065 11.3537 2.35294L5.70667 7.99894L11.3537 13.6449C11.4476 13.7388 11.5003 13.8662 11.5003 13.9989C11.5003 14.1317 11.4476 14.2591 11.3537 14.3529C11.2598 14.4468 11.1324 14.4996 10.9997 14.4996C10.8669 14.4996 10.7396 14.4468 10.6457 14.3529L4.64567 8.35294C4.59911 8.30649 4.56217 8.25132 4.53696 8.19057C4.51175 8.12983 4.49878 8.06471 4.49878 7.99894C4.49878 7.93317 4.51175 7.86805 4.53696 7.80731C4.56217 7.74656 4.59911 7.69139 4.64567 7.64494L10.6457 1.64494C10.6921 1.59838 10.7473 1.56143 10.808 1.53623C10.8688 1.51102 10.9339 1.49805 10.9997 1.49805C11.0654 1.49805 11.1306 1.51102 11.1913 1.53623C11.2521 1.56143 11.3072 1.59838 11.3537 1.64494Z" fill="#212529"/>
</g>
</svg>
