<svg width="14" height="14" viewBox="0 0 14 14" fill="none" xmlns="http://www.w3.org/2000/svg">
<g id="icon-wrapper">
<path id="Union" fill-rule="evenodd" clip-rule="evenodd" d="M4.06493 1.43908C4.10557 1.39834 4.15385 1.36601 4.207 1.34396C4.26016 1.3219 4.31714 1.31055 4.37468 1.31055C4.43223 1.31055 4.48921 1.3219 4.54236 1.34396C4.59551 1.36601 4.64379 1.39834 4.68443 1.43908L9.93443 6.68908C9.97518 6.72972 10.0075 6.778 10.0296 6.83115C10.0516 6.8843 10.063 6.94128 10.063 6.99883C10.063 7.05638 10.0516 7.11336 10.0296 7.16651C10.0075 7.21966 9.97518 7.26794 9.93443 7.30858L4.68443 12.5586C4.60228 12.6407 4.49086 12.6869 4.37468 12.6869C4.2585 12.6869 4.14708 12.6407 4.06493 12.5586C3.98278 12.4764 3.93663 12.365 3.93663 12.2488C3.93663 12.1327 3.98278 12.0212 4.06493 11.9391L9.00606 6.99883L4.06493 2.05858C4.02419 2.01794 3.99187 1.96966 3.96981 1.91651C3.94775 1.86336 3.9364 1.80638 3.9364 1.74883C3.9364 1.69128 3.94775 1.6343 3.96981 1.58115C3.99187 1.528 4.02419 1.47972 4.06493 1.43908Z" fill="#212529"/>
</g>
</svg>
