<svg width="14" height="14" viewBox="0 0 14 14" fill="none" xmlns="http://www.w3.org/2000/svg">
<g id="icon-wrapper">
<path id="Union" fill-rule="evenodd" clip-rule="evenodd" d="M1.43981 4.06444C1.48045 4.0237 1.52873 3.99138 1.58188 3.96932C1.63503 3.94727 1.69202 3.93591 1.74956 3.93591C1.80711 3.93591 1.86409 3.94727 1.91724 3.96932C1.97039 3.99138 2.01867 4.0237 2.05931 4.06444L6.99956 9.00557L11.9398 4.06444C11.9805 4.02377 12.0288 3.9915 12.0819 3.96949C12.1351 3.94747 12.192 3.93614 12.2496 3.93614C12.3071 3.93614 12.364 3.94747 12.4172 3.96949C12.4703 3.9915 12.5186 4.02377 12.5593 4.06444C12.6 4.10512 12.6323 4.15341 12.6543 4.20656C12.6763 4.25971 12.6876 4.31667 12.6876 4.3742C12.6876 4.43172 12.6763 4.48868 12.6543 4.54183C12.6323 4.59498 12.6 4.64327 12.5593 4.68395L7.30931 9.93395C7.26867 9.97469 7.22039 10.007 7.16724 10.0291C7.11409 10.0511 7.05711 10.0625 6.99956 10.0625C6.94201 10.0625 6.88503 10.0511 6.83188 10.0291C6.77873 10.007 6.73045 9.97469 6.68981 9.93395L1.43981 4.68395C1.39907 4.64331 1.36674 4.59503 1.34469 4.54187C1.32263 4.48872 1.31128 4.43174 1.31128 4.3742C1.31128 4.31665 1.32263 4.25967 1.34469 4.20652C1.36674 4.15336 1.39907 4.10508 1.43981 4.06444Z" fill="#495057"/>
</g>
</svg>
