<svg width="14" height="14" viewBox="0 0 14 14" fill="none" xmlns="http://www.w3.org/2000/svg">
<g id="icon-wrapper" clip-path="url(#clip0_5_403739)">
<path id="Union" d="M5.68726 0.874207C5.33916 0.874207 5.00532 1.01249 4.75918 1.25863C4.51304 1.50477 4.37476 1.83861 4.37476 2.18671V2.62421H1.31226C0.964159 2.62421 0.63032 2.76249 0.384178 3.00863C0.138037 3.25477 -0.000244141 3.58861 -0.000244141 3.93671V10.9367C-0.000244141 11.2848 0.138037 11.6186 0.384178 11.8648C0.63032 12.1109 0.964159 12.2492 1.31226 12.2492H12.6873C13.0354 12.2492 13.3692 12.1109 13.6153 11.8648C13.8615 11.6186 13.9998 11.2848 13.9998 10.9367V3.93671C13.9998 3.58861 13.8615 3.25477 13.6153 3.00863C13.3692 2.76249 13.0354 2.62421 12.6873 2.62421H9.62476V2.18671C9.62476 1.83861 9.48648 1.50477 9.24033 1.25863C8.99419 1.01249 8.66035 0.874207 8.31226 0.874207H5.68726ZM5.68726 1.74921H8.31226C8.42829 1.74921 8.53957 1.7953 8.62162 1.87735C8.70366 1.95939 8.74976 2.07067 8.74976 2.18671V2.62421H5.24976V2.18671C5.24976 2.07067 5.29585 1.95939 5.3779 1.87735C5.45994 1.7953 5.57122 1.74921 5.68726 1.74921V1.74921ZM7.33751 7.79896L13.1248 6.25633V10.9367C13.1248 11.0527 13.0787 11.164 12.9966 11.2461C12.9146 11.3281 12.8033 11.3742 12.6873 11.3742H1.31226C1.19622 11.3742 1.08494 11.3281 1.0029 11.2461C0.920849 11.164 0.874756 11.0527 0.874756 10.9367V6.25546L6.66201 7.79896C6.88332 7.85789 7.1162 7.85789 7.33751 7.79896V7.79896ZM1.31226 3.49921H12.6873C12.8033 3.49921 12.9146 3.5453 12.9966 3.62735C13.0787 3.70939 13.1248 3.82067 13.1248 3.93671V5.35071L7.11263 6.95371C7.03868 6.97346 6.96083 6.97346 6.88688 6.95371L0.874756 5.35071V3.93671C0.874756 3.82067 0.920849 3.70939 1.0029 3.62735C1.08494 3.5453 1.19622 3.49921 1.31226 3.49921V3.49921Z" fill="#495057"/>
</g>
<defs>
<clipPath id="clip0_5_403739">
<rect width="14" height="14" fill="white"/>
</clipPath>
</defs>
</svg>
