<svg width="14" height="14" viewBox="0 0 14 14" fill="none" xmlns="http://www.w3.org/2000/svg">
<g id="icon-wrapper" clip-path="url(#clip0_5_403701)">
<g id="Union">
<path d="M3.49976 3.49921C2.80356 3.49921 2.13588 3.77577 1.6436 4.26805C1.15132 4.76033 0.874756 5.42801 0.874756 6.12421V11.3742H6.12476V6.12421C6.12476 5.42801 5.84819 4.76033 5.35591 4.26805C4.86363 3.77577 4.19595 3.49921 3.49976 3.49921ZM3.49976 2.62421H10.4998C11.428 2.62421 12.3183 2.99296 12.9746 3.64933C13.631 4.30571 13.9998 5.19595 13.9998 6.12421V11.3742C13.9998 11.6063 13.9076 11.8288 13.7435 11.9929C13.5794 12.157 13.3568 12.2492 13.1248 12.2492H0.874756C0.642691 12.2492 0.420132 12.157 0.256037 11.9929C0.0919431 11.8288 -0.000244141 11.6063 -0.000244141 11.3742V6.12421C-0.000244141 5.19595 0.368505 4.30571 1.02488 3.64933C1.68126 2.99296 2.5715 2.62421 3.49976 2.62421ZM5.81501 3.49921C6.18783 3.82731 6.48636 4.23118 6.69066 4.68385C6.89497 5.13652 7.00034 5.62757 6.99976 6.12421V11.3742H13.1248V6.12421C13.1248 5.42801 12.8482 4.76033 12.3559 4.26805C11.8636 3.77577 11.1959 3.49921 10.4998 3.49921H5.81501Z" fill="#495057"/>
<path d="M10.3186 7.43671H7.87476V6.56171H12.2498C12.3658 6.56171 12.4771 6.6078 12.5591 6.68985C12.6412 6.77189 12.6873 6.88317 12.6873 6.99921V7.87421C12.6873 7.99024 12.6412 8.10152 12.5591 8.18357C12.4771 8.26561 12.3658 8.31171 12.2498 8.31171H11.3748C11.3173 8.31181 11.2603 8.30058 11.2072 8.27866C11.154 8.25674 11.1057 8.22456 11.065 8.18396L10.3186 7.43671ZM4.37476 6.12421C4.37476 6.60721 3.98276 6.12421 3.49976 6.12421C3.01676 6.12421 2.62476 6.60721 2.62476 6.12421C2.62476 5.89214 2.71694 5.66958 2.88104 5.50549C3.04513 5.34139 3.26769 5.24921 3.49976 5.24921C3.73182 5.24921 3.95438 5.34139 4.11847 5.50549C4.28257 5.66958 4.37476 5.89214 4.37476 6.12421Z" fill="#495057"/>
</g>
</g>
<defs>
<clipPath id="clip0_5_403701">
<rect width="14" height="14" fill="white"/>
</clipPath>
</defs>
</svg>
