<svg width="24" height="24" viewBox="0 0 24 24" fill="none" xmlns="http://www.w3.org/2000/svg">
<g id="x-lg">
<g id="Vector">
<path fill-rule="evenodd" clip-rule="evenodd" d="M20.781 3.21936C20.8508 3.28903 20.9063 3.3718 20.9441 3.46291C20.9819 3.55403 21.0013 3.65171 21.0013 3.75036C21.0013 3.84902 20.9819 3.9467 20.9441 4.03781C20.9063 4.12893 20.8508 4.2117 20.781 4.28136L4.281 20.7814C4.14017 20.9222 3.94916 21.0013 3.75 21.0013C3.55083 21.0013 3.35983 20.9222 3.219 20.7814C3.07817 20.6405 2.99905 20.4495 2.99905 20.2504C2.99905 20.0512 3.07817 19.8602 3.219 19.7194L19.719 3.21936C19.7887 3.14952 19.8714 3.09411 19.9625 3.0563C20.0537 3.01849 20.1513 2.99902 20.25 2.99902C20.3486 2.99902 20.4463 3.01849 20.5374 3.0563C20.6286 3.09411 20.7113 3.14952 20.781 3.21936Z" fill="black" fill-opacity="0.55"/>
<path fill-rule="evenodd" clip-rule="evenodd" d="M3.219 3.21936C3.14915 3.28903 3.09374 3.3718 3.05593 3.46291C3.01812 3.55403 2.99866 3.65171 2.99866 3.75036C2.99866 3.84902 3.01812 3.9467 3.05593 4.03781C3.09374 4.12893 3.14915 4.2117 3.219 4.28136L19.719 20.7814C19.8598 20.9222 20.0508 21.0013 20.25 21.0013C20.4492 21.0013 20.6402 20.9222 20.781 20.7814C20.9218 20.6405 21.0009 20.4495 21.0009 20.2504C21.0009 20.0512 20.9218 19.8602 20.781 19.7194L4.281 3.21936C4.21133 3.14952 4.12857 3.09411 4.03745 3.0563C3.94633 3.01849 3.84865 2.99902 3.75 2.99902C3.65135 2.99902 3.55367 3.01849 3.46255 3.0563C3.37143 3.09411 3.28867 3.14952 3.219 3.21936Z" fill="black" fill-opacity="0.55"/>
<path d="M20.4279 3.92736L20.4274 3.92781L13.062 11.2933L12.7071 10.9384L20.0726 3.57292L20.073 3.57247C20.0962 3.54919 20.1238 3.53072 20.1542 3.51811C20.1846 3.50551 20.2171 3.49902 20.25 3.49902C20.2829 3.49902 20.3154 3.50551 20.3458 3.51811C20.3762 3.53072 20.4038 3.54919 20.427 3.57247L20.4279 3.57336C20.4512 3.59659 20.4696 3.62417 20.4822 3.65455C20.4949 3.68492 20.5013 3.71748 20.5013 3.75036C20.5013 3.78325 20.4949 3.81581 20.4822 3.84618C20.4696 3.87656 20.4512 3.90414 20.4279 3.92736ZM12 11.6455L12.3549 12.0004L12 12.3553L11.6451 12.0004L12 11.6455ZM12.7071 13.0624L13.062 12.7075L20.4274 20.0729C20.4745 20.12 20.5009 20.1838 20.5009 20.2504C20.5009 20.3169 20.4745 20.3808 20.4274 20.4278C20.3804 20.4749 20.3166 20.5013 20.25 20.5013C20.1834 20.5013 20.1196 20.4749 20.0726 20.4278L12.7071 13.0624ZM10.938 12.7075L11.2929 13.0624L3.92744 20.4278C3.88038 20.4749 3.81655 20.5013 3.75 20.5013C3.68344 20.5013 3.61961 20.4749 3.57255 20.4278C3.52549 20.3807 3.49905 20.3169 3.49905 20.2504C3.49905 20.1838 3.52549 20.12 3.57255 20.0729L10.938 12.7075ZM11.2929 10.9384L10.938 11.2933L3.57255 3.92781L3.5721 3.92736C3.54882 3.90414 3.53035 3.87655 3.51775 3.84618C3.50514 3.81581 3.49866 3.78325 3.49866 3.75036C3.49866 3.71748 3.50514 3.68492 3.51775 3.65455C3.53035 3.62417 3.54882 3.59659 3.5721 3.57336L3.57211 3.57337L3.573 3.57247C3.59622 3.54919 3.62381 3.53072 3.65418 3.51811C3.68455 3.50551 3.71711 3.49902 3.75 3.49902C3.78288 3.49902 3.81544 3.50551 3.84581 3.51811C3.87619 3.53072 3.90378 3.54919 3.927 3.57247L3.92744 3.57292L11.2929 10.9384Z" stroke="black" stroke-opacity="0.55"/>
</g>
</g>
</svg>
