<svg width="16" height="16" viewBox="0 0 16 16" fill="none" xmlns="http://www.w3.org/2000/svg">
<rect width="16" height="16" fill="white" fill-opacity="0.01"/>
<g clip-path="url(#clip0_5_342430)">
<rect width="14" height="14" transform="translate(1 1)" fill="white" fill-opacity="0.01"/>
<g clip-path="url(#clip1_5_342430)">
<path d="M10.4969 7.25202C10.5376 7.29266 10.57 7.34094 10.592 7.39409C10.6141 7.44724 10.6254 7.50422 10.6254 7.56177C10.6254 7.61931 10.6141 7.6763 10.592 7.72945C10.57 7.7826 10.5376 7.83088 10.4969 7.87152L7.87188 10.4965C7.83124 10.5373 7.78297 10.5696 7.72981 10.5916C7.67666 10.6137 7.61968 10.625 7.56213 10.625C7.50459 10.625 7.44761 10.6137 7.39445 10.5916C7.3413 10.5696 7.29302 10.5373 7.25238 10.4965L5.93988 9.18402C5.89921 9.14334 5.86694 9.09505 5.84493 9.0419C5.82291 8.98876 5.81158 8.93179 5.81158 8.87427C5.81158 8.81674 5.82291 8.75978 5.84493 8.70663C5.86694 8.65348 5.89921 8.60519 5.93988 8.56452C6.02203 8.48237 6.13345 8.43622 6.24963 8.43622C6.30716 8.43622 6.36412 8.44755 6.41727 8.46956C6.47042 8.49157 6.51871 8.52384 6.55938 8.56452L7.56213 9.56814L9.87738 7.25202C9.91802 7.21127 9.9663 7.17895 10.0195 7.15689C10.0726 7.13484 10.1296 7.12349 10.1871 7.12349C10.2447 7.12349 10.3017 7.13484 10.3548 7.15689C10.408 7.17895 10.4562 7.21127 10.4969 7.25202Z" fill="#6C757D"/>
<path d="M4.06213 0.999268C4.17817 0.999268 4.28945 1.04536 4.37149 1.12741C4.45354 1.20946 4.49963 1.32074 4.49963 1.43677V1.87427H11.4996V1.43677C11.4996 1.32074 11.5457 1.20946 11.6278 1.12741C11.7098 1.04536 11.8211 0.999268 11.9371 0.999268C12.0532 0.999268 12.1644 1.04536 12.2465 1.12741C12.3285 1.20946 12.3746 1.32074 12.3746 1.43677V1.87427H13.2496C13.7138 1.87427 14.1589 2.05864 14.4871 2.38683C14.8153 2.71502 14.9996 3.16014 14.9996 3.62427V13.2493C14.9996 13.7134 14.8153 14.1585 14.4871 14.4867C14.1589 14.8149 13.7138 14.9993 13.2496 14.9993H2.74963C2.2855 14.9993 1.84039 14.8149 1.5122 14.4867C1.18401 14.1585 0.999634 13.7134 0.999634 13.2493V3.62427C0.999634 3.16014 1.18401 2.71502 1.5122 2.38683C1.84039 2.05864 2.2855 1.87427 2.74963 1.87427H3.62463V1.43677C3.62463 1.32074 3.67073 1.20946 3.75277 1.12741C3.83482 1.04536 3.9461 0.999268 4.06213 0.999268ZM1.87463 4.49927V13.2493C1.87463 13.4813 1.96682 13.7039 2.13092 13.868C2.29501 14.0321 2.51757 14.1243 2.74963 14.1243H13.2496C13.4817 14.1243 13.7043 14.0321 13.8684 13.868C14.0324 13.7039 14.1246 13.4813 14.1246 13.2493V4.49927H1.87463Z" fill="#6C757D"/>
</g>
</g>
<defs>
<clipPath id="clip0_5_342430">
<rect width="14" height="14" fill="white" transform="translate(1 1)"/>
</clipPath>
<clipPath id="clip1_5_342430">
<rect width="14" height="14" fill="white" transform="translate(1 1)"/>
</clipPath>
</defs>
</svg>
