<svg width="16" height="16" viewBox="0 0 16 16" fill="none" xmlns="http://www.w3.org/2000/svg">
<rect width="16" height="16" fill="white" fill-opacity="0.01"/>
<g clip-path="url(#clip0_13_442491)">
<rect width="14" height="14" transform="translate(1 1)" fill="white" fill-opacity="0.01"/>
<g clip-path="url(#clip1_13_442491)">
<path d="M15 7.99902C15 9.85554 14.2625 11.636 12.9497 12.9488C11.637 14.2615 9.85652 14.999 8 14.999C6.14348 14.999 4.36301 14.2615 3.05025 12.9488C1.7375 11.636 1 9.85554 1 7.99902C1 6.14251 1.7375 4.36203 3.05025 3.04928C4.36301 1.73652 6.14348 0.999023 8 0.999023C9.85652 0.999023 11.637 1.73652 12.9497 3.04928C14.2625 4.36203 15 6.14251 15 7.99902V7.99902ZM5.68475 5.06427C5.6026 4.98212 5.49118 4.93597 5.375 4.93597C5.25882 4.93597 5.1474 4.98212 5.06525 5.06427C4.9831 5.14642 4.93695 5.25784 4.93695 5.37402C4.93695 5.4902 4.9831 5.60162 5.06525 5.68377L7.38138 7.99902L5.06525 10.3143C5.02457 10.355 4.99231 10.4032 4.97029 10.4564C4.94828 10.5095 4.93695 10.5665 4.93695 10.624C4.93695 10.6815 4.94828 10.7385 4.97029 10.7917C4.99231 10.8448 5.02457 10.8931 5.06525 10.9338C5.1474 11.0159 5.25882 11.0621 5.375 11.0621C5.43253 11.0621 5.48949 11.0507 5.54264 11.0287C5.59578 11.0067 5.64407 10.9745 5.68475 10.9338L8 8.61765L10.3152 10.9338C10.3559 10.9745 10.4042 11.0067 10.4574 11.0287C10.5105 11.0507 10.5675 11.0621 10.625 11.0621C10.6825 11.0621 10.7395 11.0507 10.7926 11.0287C10.8458 11.0067 10.8941 10.9745 10.9348 10.9338C10.9754 10.8931 11.0077 10.8448 11.0297 10.7917C11.0517 10.7385 11.0631 10.6815 11.0631 10.624C11.0631 10.5665 11.0517 10.5095 11.0297 10.4564C11.0077 10.4032 10.9754 10.355 10.9348 10.3143L8.61862 7.99902L10.9348 5.68377C10.9754 5.6431 11.0077 5.59481 11.0297 5.54166C11.0517 5.48851 11.0631 5.43155 11.0631 5.37402C11.0631 5.3165 11.0517 5.25953 11.0297 5.20639C11.0077 5.15324 10.9754 5.10495 10.9348 5.06427C10.8941 5.0236 10.8458 4.99133 10.7926 4.96932C10.7395 4.9473 10.6825 4.93597 10.625 4.93597C10.5675 4.93597 10.5105 4.9473 10.4574 4.96932C10.4042 4.99133 10.3559 5.0236 10.3152 5.06427L8 7.3804L5.68475 5.06427Z" fill="#6C757D"/>
</g>
</g>
<defs>
<clipPath id="clip0_13_442491">
<rect width="14" height="14" fill="white" transform="translate(1 1)"/>
</clipPath>
<clipPath id="clip1_13_442491">
<rect width="14" height="14" fill="white" transform="translate(1 1)"/>
</clipPath>
</defs>
</svg>
