<svg width="24" height="24" fill="none" xmlns="http://www.w3.org/2000/svg"><path fill="#fff" fill-opacity=".01" d="M0 0h24v24H0z"/><g clip-path="url(#clip0_1_919851)"><path fill="#fff" fill-opacity=".01" d="M4 4h16v16H4z"/><g clip-path="url(#clip1_1_919851)"><path d="M4.293 4.293a1 1 0 011.414 0L12 10.586l6.293-6.293a1 1 0 111.414 1.414L13.414 12l6.293 6.293a1 1 0 01-1.414 1.414L12 13.414l-6.293 6.293a1 1 0 01-1.414-1.414L10.586 12 4.293 5.707a1 1 0 010-1.414z" fill="#fff"/></g></g><defs><clipPath id="clip0_1_919851"><path fill="#fff" transform="translate(4 4)" d="M0 0h16v16H0z"/></clipPath><clipPath id="clip1_1_919851"><path fill="#fff" transform="translate(4 4)" d="M0 0h16v16H0z"/></clipPath></defs></svg>