<svg width="1752" height="24" fill="none" xmlns="http://www.w3.org/2000/svg"><g clip-path="url(#clip0_1_919844)"><path fill="#fff" fill-opacity=".01" d="M0 0h1752v24H0z"/><path d="M0 12h827.5" stroke="#fff"/><path fill="#fff" fill-opacity=".01" d="M843.5 0h65v24h-65z"/><path d="M846.359 10.672V20.75h-1.882V9.047h1.734l.148 1.625zm5.508 2.523v.164c0 .615-.073 1.185-.219 1.711-.14.521-.351.977-.632 1.367a2.918 2.918 0 01-1.024.899c-.406.213-.875.32-1.406.32-.526 0-.987-.096-1.383-.289a2.83 2.83 0 01-.992-.836 4.515 4.515 0 01-.656-1.265 8.107 8.107 0 01-.344-1.61v-.633c.068-.62.182-1.182.344-1.687a4.55 4.55 0 01.656-1.305 2.8 2.8 0 01.992-.844c.391-.197.846-.296 1.367-.296.532 0 1.003.104 1.414.312a2.84 2.84 0 011.039.875c.282.375.493.828.633 1.36.141.525.211 1.111.211 1.757zm-1.883.164v-.164c0-.39-.036-.752-.109-1.086a2.82 2.82 0 00-.344-.89 1.685 1.685 0 00-.601-.594c-.24-.146-.529-.219-.868-.219a1.97 1.97 0 00-.859.172c-.239.11-.44.263-.601.461-.162.198-.287.43-.375.695a4.17 4.17 0 00-.188.852v1.516c.063.375.169.718.32 1.03.151.313.365.563.641.75.281.183.641.274 1.078.274.339 0 .628-.073.867-.218.24-.146.435-.347.586-.602.157-.26.271-.56.344-.899.073-.338.109-.697.109-1.078zm7.211 4.297c-.625 0-1.19-.101-1.695-.304a3.741 3.741 0 01-1.281-.868 3.852 3.852 0 01-.805-1.304 4.58 4.58 0 01-.281-1.617v-.313c0-.662.096-1.26.289-1.797a4.08 4.08 0 01.805-1.375 3.46 3.46 0 011.218-.883 3.793 3.793 0 011.524-.304c.604 0 1.133.101 1.586.304.453.203.828.49 1.125.86.302.364.526.8.672 1.304.151.506.226 1.063.226 1.672v.805h-6.531v-1.352h4.672v-.148a2.656 2.656 0 00-.203-.953 1.622 1.622 0 00-.555-.719c-.25-.182-.583-.273-1-.273-.313 0-.591.067-.836.203-.24.13-.44.32-.602.57-.161.25-.286.552-.375.906a5.111 5.111 0 00-.125 1.18v.313c0 .37.05.713.149 1.03.104.313.255.587.453.821.198.234.437.42.719.555.281.13.601.195.961.195.453 0 .856-.091 1.211-.273.354-.183.661-.44.922-.774l.992.961c-.183.266-.42.521-.711.766a3.57 3.57 0 01-1.071.586c-.416.15-.901.226-1.453.226zm6.883-8.61V17.5h-1.883V9.047h1.883zm5.516 0l-3.805 5.087h-2.148l-.25-1.703h1.57l2.281-3.383h2.352zm-2.203 8.454l-2.547-3.688 1.484-1.07 3.539 4.758h-2.476zm9.179-8.453v1.5h-4.125v-1.5h4.125zm1.477 0V17.5h-1.883V9.047h1.883zm-6.063 0h1.86l-.227 4.18c-.031.62-.094 1.166-.187 1.64a5.507 5.507 0 01-.36 1.211 2.58 2.58 0 01-.554.813 2.053 2.053 0 01-.766.46c-.292.1-.62.149-.984.149h-.586l-.008-1.547.297-.023a1.15 1.15 0 00.5-.149c.14-.088.26-.213.359-.375.104-.161.188-.37.25-.625.068-.255.12-.557.156-.906.042-.349.073-.755.094-1.219l.156-3.61zm12.828 6.758v-4.032a1.72 1.72 0 00-.164-.78 1.146 1.146 0 00-.5-.509c-.218-.12-.494-.18-.828-.18-.307 0-.573.053-.797.157a1.287 1.287 0 00-.523.422 1.018 1.018 0 00-.188.601h-1.874c0-.333.08-.656.242-.968.161-.313.396-.592.703-.836a3.506 3.506 0 011.101-.578 4.575 4.575 0 011.438-.211c.635 0 1.198.106 1.687.32.495.213.883.536 1.164.969.287.427.43.963.43 1.61v3.757c0 .385.026.732.078 1.039.058.302.138.565.242.789v.125h-1.929a3.307 3.307 0 01-.211-.773 6.302 6.302 0 01-.071-.922zm.274-3.446l.016 1.164h-1.352a3.74 3.74 0 00-.922.102 1.89 1.89 0 00-.664.281 1.216 1.216 0 00-.531 1.055c0 .224.052.43.156.617.104.182.255.326.453.43.203.104.448.156.735.156a2.07 2.07 0 001.007-.234c.292-.162.521-.357.688-.586.167-.235.255-.456.266-.664l.609.836a2.878 2.878 0 01-.32.687c-.151.245-.349.48-.594.703a2.96 2.96 0 01-.867.54 2.96 2.96 0 01-1.157.21c-.552 0-1.044-.11-1.476-.328a2.63 2.63 0 01-1.016-.898 2.328 2.328 0 01-.367-1.29c0-.447.083-.843.25-1.187a2.33 2.33 0 01.75-.875c.333-.234.74-.411 1.219-.531a6.517 6.517 0 011.64-.188h1.477zm8.609 2.86l2.516-6.172h1.633l-3.508 8.453h-1.281l-3.5-8.453h1.633l2.507 6.172zm-2.992-6.172V17.5h-1.883V9.047h1.883zm5.985 8.453V9.047h1.89V17.5h-1.89zm8.765-1.695v-4.032c0-.302-.055-.562-.164-.78a1.146 1.146 0 00-.5-.509c-.219-.12-.495-.18-.828-.18-.307 0-.573.053-.797.157a1.287 1.287 0 00-.523.422 1.018 1.018 0 00-.188.601h-1.875c0-.333.081-.656.242-.968a2.6 2.6 0 01.703-.836 3.523 3.523 0 011.102-.578 4.58 4.58 0 011.437-.211c.636 0 1.198.106 1.688.32.495.213.883.536 1.164.969.287.427.43.963.43 1.61v3.757c0 .385.026.732.078 1.039.057.302.138.565.242.789v.125h-1.93a3.408 3.408 0 01-.211-.773 6.439 6.439 0 01-.07-.922zm.274-3.446l.015 1.164h-1.351a3.75 3.75 0 00-.922.102 1.89 1.89 0 00-.664.281c-.177.125-.31.276-.399.453a1.334 1.334 0 00-.133.602c0 .224.053.43.157.617.104.182.255.326.453.43.203.104.448.156.734.156.386 0 .722-.078 1.008-.234.292-.162.521-.357.687-.586.167-.235.256-.456.266-.664l.61.836c-.063.213-.17.442-.321.687-.151.245-.349.48-.594.703a2.934 2.934 0 01-2.023.75c-.552 0-1.044-.11-1.477-.328a2.626 2.626 0 01-1.015-.898 2.328 2.328 0 01-.367-1.29c0-.447.083-.843.25-1.187.171-.349.421-.64.75-.875a3.626 3.626 0 011.218-.531 6.525 6.525 0 011.641-.188h1.477z" fill="#F8F9FA"/><path d="M924.5 12H1752" stroke="#fff"/></g><defs><clipPath id="clip0_1_919844"><path fill="#fff" d="M0 0h1752v24H0z"/></clipPath></defs></svg>