<svg width="16" height="16" viewBox="0 0 16 16" fill="none" xmlns="http://www.w3.org/2000/svg">
<g id="icon-wrapper" clip-path="url(#clip0_13_473988)">
<g id="Union">
<path d="M4 1.49902H3C2.46957 1.49902 1.96086 1.70974 1.58579 2.08481C1.21071 2.45988 1 2.96859 1 3.49902V13.999C1 14.5295 1.21071 15.0382 1.58579 15.4132C1.96086 15.7883 2.46957 15.999 3 15.999H13C13.5304 15.999 14.0391 15.7883 14.4142 15.4132C14.7893 15.0382 15 14.5295 15 13.999V3.49902C15 2.96859 14.7893 2.45988 14.4142 2.08481C14.0391 1.70974 13.5304 1.49902 13 1.49902H12V2.49902H13C13.2652 2.49902 13.5196 2.60438 13.7071 2.79192C13.8946 2.97945 14 3.23381 14 3.49902V13.999C14 14.2642 13.8946 14.5186 13.7071 14.7061C13.5196 14.8937 13.2652 14.999 13 14.999H3C2.73478 14.999 2.48043 14.8937 2.29289 14.7061C2.10536 14.5186 2 14.2642 2 13.999V3.49902C2 3.23381 2.10536 2.97945 2.29289 2.79192C2.48043 2.60438 2.73478 2.49902 3 2.49902H4V1.49902Z" fill="#212529"/>
<path d="M9.5 0.999023C9.63261 0.999023 9.75979 1.0517 9.85355 1.14547C9.94732 1.23924 10 1.36642 10 1.49902V2.49902C10 2.63163 9.94732 2.75881 9.85355 2.85258C9.75979 2.94634 9.63261 2.99902 9.5 2.99902H6.5C6.36739 2.99902 6.24021 2.94634 6.14645 2.85258C6.05268 2.75881 6 2.63163 6 2.49902V1.49902C6 1.36642 6.05268 1.23924 6.14645 1.14547C6.24021 1.0517 6.36739 0.999023 6.5 0.999023H9.5ZM6.5 -0.000976562C6.10218 -0.000976562 5.72064 0.157059 5.43934 0.438363C5.15804 0.719668 5 1.1012 5 1.49902V2.49902C5 2.89685 5.15804 3.27838 5.43934 3.55968C5.72064 3.84099 6.10218 3.99902 6.5 3.99902H9.5C9.89782 3.99902 10.2794 3.84099 10.5607 3.55968C10.842 3.27838 11 2.89685 11 2.49902V1.49902C11 1.1012 10.842 0.719668 10.5607 0.438363C10.2794 0.157059 9.89782 -0.000976562 9.5 -0.000976562H6.5Z" fill="#212529"/>
</g>
</g>
<defs>
<clipPath id="clip0_13_473988">
<rect width="16" height="16" fill="white"/>
</clipPath>
</defs>
</svg>
