<svg width="16" height="16" viewBox="0 0 16 16" fill="none" xmlns="http://www.w3.org/2000/svg">
<g id="icon-wrapper" clip-path="url(#clip0_13_473225)">
<g id="Union">
<path d="M5.5 9.51002C5.576 10.464 6.33 11.207 7.682 11.295V11.999H8.282V11.29C9.682 11.192 10.5 10.444 10.5 9.35802C10.5 8.37102 9.874 7.86202 8.755 7.59802L8.282 7.48602V5.56902C8.882 5.63702 9.264 5.96502 9.356 6.41902H10.408C10.332 5.50002 9.544 4.78102 8.282 4.70302V3.99902H7.682V4.71802C6.487 4.83502 5.672 5.55402 5.672 6.57102C5.672 7.47102 6.278 8.04302 7.285 8.27802L7.682 8.37602V10.41C7.067 10.317 6.66 9.98002 6.568 9.51002H5.5ZM7.677 7.34402C7.087 7.20702 6.767 6.92802 6.767 6.50802C6.767 6.03802 7.112 5.68602 7.682 5.58302V7.34302L7.677 7.34402ZM8.369 8.53702C9.086 8.70302 9.417 8.97202 9.417 9.44702C9.417 9.98902 9.005 10.361 8.282 10.429V8.51702L8.369 8.53702Z" fill="#212529"/>
<path d="M8 14.999C6.14348 14.999 4.36301 14.2615 3.05025 12.9488C1.7375 11.636 1 9.85554 1 7.99902C1 6.14251 1.7375 4.36203 3.05025 3.04928C4.36301 1.73652 6.14348 0.999023 8 0.999023C9.85652 0.999023 11.637 1.73652 12.9497 3.04928C14.2625 4.36203 15 6.14251 15 7.99902C15 9.85554 14.2625 11.636 12.9497 12.9488C11.637 14.2615 9.85652 14.999 8 14.999ZM8 15.999C10.1217 15.999 12.1566 15.1562 13.6569 13.6559C15.1571 12.1556 16 10.1208 16 7.99902C16 5.87729 15.1571 3.84246 13.6569 2.34217C12.1566 0.841878 10.1217 -0.000976562 8 -0.000976562C5.87827 -0.000976562 3.84344 0.841878 2.34315 2.34217C0.842855 3.84246 0 5.87729 0 7.99902C0 10.1208 0.842855 12.1556 2.34315 13.6559C3.84344 15.1562 5.87827 15.999 8 15.999Z" fill="#212529"/>
<path d="M8 13.499C6.54131 13.499 5.14236 12.9196 4.11091 11.8881C3.07946 10.8567 2.5 9.45771 2.5 7.99902C2.5 6.54033 3.07946 5.14139 4.11091 4.10994C5.14236 3.07849 6.54131 2.49902 8 2.49902C9.45869 2.49902 10.8576 3.07849 11.8891 4.10994C12.9205 5.14139 13.5 6.54033 13.5 7.99902C13.5 9.45771 12.9205 10.8567 11.8891 11.8881C10.8576 12.9196 9.45869 13.499 8 13.499ZM8 13.999C8.78793 13.999 9.56815 13.8438 10.2961 13.5423C11.0241 13.2408 11.6855 12.7988 12.2426 12.2417C12.7998 11.6845 13.2417 11.0231 13.5433 10.2951C13.8448 9.56717 14 8.78695 14 7.99902C14 7.21109 13.8448 6.43088 13.5433 5.70292C13.2417 4.97497 12.7998 4.31353 12.2426 3.75638C11.6855 3.19923 11.0241 2.75727 10.2961 2.45575C9.56815 2.15422 8.78793 1.99902 8 1.99902C6.4087 1.99902 4.88258 2.63116 3.75736 3.75638C2.63214 4.8816 2 6.40772 2 7.99902C2 9.59032 2.63214 11.1164 3.75736 12.2417C4.88258 13.3669 6.4087 13.999 8 13.999Z" fill="#212529"/>
</g>
</g>
<defs>
<clipPath id="clip0_13_473225">
<rect width="16" height="16" fill="white"/>
</clipPath>
</defs>
</svg>
