<svg width="14" height="14" viewBox="0 0 14 14" fill="none" xmlns="http://www.w3.org/2000/svg">
<g id="icon-wrapper" clip-path="url(#clip0_15_435881)">
<path id="Union" d="M12.25 3.93665V12.2491C12.25 12.7133 12.0656 13.1584 11.7374 13.4866C11.4092 13.8148 10.9641 13.9991 10.5 13.9991H3.5C3.03587 13.9991 2.59075 13.8148 2.26256 13.4866C1.93437 13.1584 1.75 12.7133 1.75 12.2491V1.74915C1.75 1.28502 1.93437 0.839897 2.26256 0.511709C2.59075 0.18352 3.03587 -0.000854492 3.5 -0.000854492H8.3125L12.25 3.93665ZM9.625 3.93665C9.2769 3.93665 8.94306 3.79836 8.69692 3.55222C8.45078 3.30608 8.3125 2.97224 8.3125 2.62415V0.874146H3.5C3.26794 0.874146 3.04538 0.966333 2.88128 1.13043C2.71719 1.29452 2.625 1.51708 2.625 1.74915V12.2491C2.625 12.4812 2.71719 12.7038 2.88128 12.8679C3.04538 13.032 3.26794 13.1241 3.5 13.1241H10.5C10.7321 13.1241 10.9546 13.032 11.1187 12.8679C11.2828 12.7038 11.375 12.4812 11.375 12.2491V3.93665H9.625Z" fill="#4F03EF"/>
</g>
<defs>
<clipPath id="clip0_15_435881">
<rect width="14" height="14" fill="white"/>
</clipPath>
</defs>
</svg>
