<svg width="14" height="14" viewBox="0 0 14 14" fill="none" xmlns="http://www.w3.org/2000/svg">
<g id="icon-wrapper" clip-path="url(#clip0_5_403663)">
<path id="Union" d="M2.62476 2.18671C2.62476 1.60655 2.85522 1.05015 3.26546 0.63991C3.6757 0.229675 4.23209 -0.000793457 4.81226 -0.000793457C5.39242 -0.000793457 5.94882 0.229675 6.35905 0.63991C6.76929 1.05015 6.99976 1.60655 6.99976 2.18671C6.99976 1.60655 7.23022 1.05015 7.64046 0.63991C8.0507 0.229675 8.60709 -0.000793457 9.18726 -0.000793457C9.76742 -0.000793457 10.3238 0.229675 10.7341 0.63991C11.1443 1.05015 11.3748 1.60655 11.3748 2.18671V2.19196C11.3748 2.25321 11.3748 2.42821 11.3415 2.62421H13.1248C13.3568 2.62421 13.5794 2.71639 13.7435 2.88049C13.9076 3.04458 13.9998 3.26714 13.9998 3.49921V5.24921C13.9998 5.48127 13.9076 5.70383 13.7435 5.86792C13.5794 6.03202 13.3568 6.12421 13.1248 6.12421V12.6867C13.1248 13.0348 12.9865 13.3686 12.7403 13.6148C12.4942 13.8609 12.1604 13.9992 11.8123 13.9992H2.18726C1.83916 13.9992 1.50532 13.8609 1.25918 13.6148C1.01304 13.3686 0.874756 13.0348 0.874756 12.6867V6.12421C0.642691 6.12421 0.420132 6.03202 0.256037 5.86792C0.0919431 5.70383 -0.000244141 5.48127 -0.000244141 5.24921V3.49921C-0.000244141 3.26714 0.0919431 3.04458 0.256037 2.88049C0.420132 2.71639 0.642691 2.62421 0.874756 2.62421H2.65801C2.63489 2.4813 2.62377 2.33671 2.62476 2.19196V2.18671ZM3.55926 2.62421H6.12476V2.18671C6.12476 2.01435 6.09081 1.84367 6.02485 1.68443C5.95889 1.52519 5.86221 1.38051 5.74033 1.25863C5.61846 1.13675 5.47377 1.04007 5.31453 0.974115C5.15529 0.908155 4.98462 0.874206 4.81226 0.874206C4.6399 0.874206 4.46922 0.908155 4.30998 0.974115C4.15074 1.04007 4.00605 1.13675 3.88418 1.25863C3.7623 1.38051 3.66562 1.52519 3.59966 1.68443C3.5337 1.84367 3.49976 2.01435 3.49976 2.18671C3.49976 2.26108 3.50151 2.42646 3.53913 2.56296C3.54439 2.58382 3.55111 2.60429 3.55926 2.62421V2.62421ZM7.87476 2.62421H10.4403C10.4483 2.60425 10.455 2.58379 10.4604 2.56296C10.498 2.42646 10.4998 2.26108 10.4998 2.18671C10.4998 1.83861 10.3615 1.50477 10.1153 1.25863C9.86919 1.01249 9.53535 0.874207 9.18726 0.874207C8.83916 0.874207 8.50532 1.01249 8.25918 1.25863C8.01304 1.50477 7.87476 1.83861 7.87476 2.18671V2.62421ZM0.874756 3.49921V5.24921H6.12476V3.49921H0.874756ZM7.87476 3.49921V5.24921H13.1248V3.49921H7.87476ZM12.2498 6.12421H7.87476V13.1242H11.8123C11.9283 13.1242 12.0396 13.0781 12.1216 12.9961C12.2037 12.914 12.2498 12.8027 12.2498 12.6867V6.12421ZM6.12476 13.1242V6.12421H1.74976V12.6867C1.74976 12.8027 1.79585 12.914 1.8779 12.9961C1.95994 13.0781 2.07122 13.1242 2.18726 13.1242H6.12476Z" fill="#495057"/>
</g>
<defs>
<clipPath id="clip0_5_403663">
<rect width="14" height="14" fill="white"/>
</clipPath>
</defs>
</svg>
