<svg width="16" height="16" viewBox="0 0 16 16" fill="none" xmlns="http://www.w3.org/2000/svg">
<g id="icon-wrapper" clip-path="url(#clip0_13_472702)">
<path id="Union" d="M15 13.999C15 13.999 16 13.999 16 12.999C16 11.999 15 8.99902 11 8.99902C7 8.99902 6 11.999 6 12.999C6 13.999 7 13.999 7 13.999H15ZM7.022 12.999C7.01461 12.998 7.00727 12.9967 7 12.995C7.001 12.731 7.167 11.965 7.76 11.275C8.312 10.628 9.282 9.99902 11 9.99902C12.717 9.99902 13.687 10.629 14.24 11.275C14.833 11.965 14.998 12.732 15 12.995L14.992 12.997C14.9874 12.9978 14.9827 12.9985 14.978 12.999H7.022V12.999ZM11 6.99902C11.5304 6.99902 12.0391 6.78831 12.4142 6.41324C12.7893 6.03816 13 5.52946 13 4.99902C13 4.46859 12.7893 3.95988 12.4142 3.58481C12.0391 3.20974 11.5304 2.99902 11 2.99902C10.4696 2.99902 9.96086 3.20974 9.58579 3.58481C9.21071 3.95988 9 4.46859 9 4.99902C9 5.52946 9.21071 6.03816 9.58579 6.41324C9.96086 6.78831 10.4696 6.99902 11 6.99902ZM14 4.99902C14 5.39299 13.9224 5.7831 13.7716 6.14707C13.6209 6.51105 13.3999 6.84177 13.1213 7.12034C12.8427 7.39892 12.512 7.6199 12.1481 7.77066C11.7841 7.92143 11.394 7.99902 11 7.99902C10.606 7.99902 10.2159 7.92143 9.85195 7.77066C9.48797 7.6199 9.15726 7.39892 8.87868 7.12034C8.6001 6.84177 8.37913 6.51105 8.22836 6.14707C8.0776 5.7831 8 5.39299 8 4.99902C8 4.20337 8.31607 3.44031 8.87868 2.8777C9.44129 2.31509 10.2044 1.99902 11 1.99902C11.7956 1.99902 12.5587 2.31509 13.1213 2.8777C13.6839 3.44031 14 4.20337 14 4.99902V4.99902ZM6.936 9.27902C6.53598 9.15306 6.12364 9.07026 5.706 9.03202C5.47133 9.00971 5.23573 8.9987 5 8.99902C1 8.99902 0 11.999 0 12.999C0 13.666 0.333 13.999 1 13.999H5.216C5.06776 13.6868 4.99382 13.3446 5 12.999C5 11.989 5.377 10.957 6.09 10.095C6.333 9.80102 6.616 9.52602 6.936 9.27902ZM4.92 9.99902C4.32815 10.8883 4.00844 11.9308 4 12.999H1C1 12.739 1.164 11.969 1.76 11.275C2.305 10.639 3.252 10.019 4.92 10V9.99902ZM1.5 5.49902C1.5 4.70337 1.81607 3.94031 2.37868 3.3777C2.94129 2.81509 3.70435 2.49902 4.5 2.49902C5.29565 2.49902 6.05871 2.81509 6.62132 3.3777C7.18393 3.94031 7.5 4.70337 7.5 5.49902C7.5 6.29467 7.18393 7.05773 6.62132 7.62034C6.05871 8.18295 5.29565 8.49902 4.5 8.49902C3.70435 8.49902 2.94129 8.18295 2.37868 7.62034C1.81607 7.05773 1.5 6.29467 1.5 5.49902V5.49902ZM4.5 3.49902C3.96957 3.49902 3.46086 3.70974 3.08579 4.08481C2.71071 4.45988 2.5 4.96859 2.5 5.49902C2.5 6.02946 2.71071 6.53816 3.08579 6.91324C3.46086 7.28831 3.96957 7.49902 4.5 7.49902C5.03043 7.49902 5.53914 7.28831 5.91421 6.91324C6.28929 6.53816 6.5 6.02946 6.5 5.49902C6.5 4.96859 6.28929 4.45988 5.91421 4.08481C5.53914 3.70974 5.03043 3.49902 4.5 3.49902Z" fill="#212529"/>
</g>
<defs>
<clipPath id="clip0_13_472702">
<rect width="16" height="16" fill="white"/>
</clipPath>
</defs>
</svg>
