<svg width="14" height="14" viewBox="0 0 14 14" fill="none" xmlns="http://www.w3.org/2000/svg">
<g id="icon-wrapper" clip-path="url(#clip0_5_403720)">
<path id="Union" d="M6.99976 0.874207C5.83943 0.874207 4.72664 1.33514 3.90616 2.15561C3.08569 2.97609 2.62476 4.08888 2.62476 5.24921V6.12421H3.49976C3.73182 6.12421 3.95438 6.21639 4.11847 6.38049C4.28257 6.54458 4.37476 6.76714 4.37476 6.99921V9.62421C4.37476 9.85627 4.28257 10.0788 4.11847 10.2429C3.95438 10.407 3.73182 10.4992 3.49976 10.4992H2.62476C2.39269 10.4992 2.17013 10.407 2.00604 10.2429C1.84194 10.0788 1.74976 9.85627 1.74976 9.62421V5.24921C1.74976 4.55977 1.88555 3.87708 2.14939 3.24012C2.41323 2.60316 2.79994 2.0244 3.28745 1.5369C3.77495 1.04939 4.35371 0.662676 4.99067 0.398839C5.62763 0.135002 6.31032 -0.000793457 6.99976 -0.000793457C7.6892 -0.000793457 8.37188 0.135002 9.00884 0.398839C9.6458 0.662676 10.2246 1.04939 10.7121 1.5369C11.1996 2.0244 11.5863 2.60316 11.8501 3.24012C12.114 3.87708 12.2498 4.55977 12.2498 5.24921V10.4992C12.2498 11.0794 12.0193 11.6358 11.6091 12.046C11.1988 12.4562 10.6424 12.6867 10.0623 12.6867H8.19501C8.11821 12.8197 8.00776 12.9302 7.87474 13.007C7.74173 13.0838 7.59085 13.1242 7.43726 13.1242H6.56226C6.33019 13.1242 6.10763 13.032 5.94354 12.8679C5.77944 12.7038 5.68726 12.4813 5.68726 12.2492C5.68726 12.0171 5.77944 11.7946 5.94354 11.6305C6.10763 11.4664 6.33019 11.3742 6.56226 11.3742H7.43726C7.59085 11.3742 7.74173 11.4146 7.87474 11.4914C8.00776 11.5682 8.11821 11.6787 8.19501 11.8117H10.0623C10.4104 11.8117 10.7442 11.6734 10.9903 11.4273C11.2365 11.1811 11.3748 10.8473 11.3748 10.4992H10.4998C10.2677 10.4992 10.0451 10.407 9.88104 10.2429C9.71694 10.0788 9.62476 9.85627 9.62476 9.62421V6.99921C9.62476 6.76714 9.71694 6.54458 9.88104 6.38049C10.0451 6.21639 10.2677 6.12421 10.4998 6.12421H11.3748V5.24921C11.3748 4.67467 11.2616 4.10577 11.0417 3.57497C10.8219 3.04417 10.4996 2.56187 10.0933 2.15561C9.68709 1.74936 9.2048 1.4271 8.674 1.20723C8.1432 0.987369 7.57429 0.874207 6.99976 0.874207V0.874207Z" fill="#495057"/>
</g>
<defs>
<clipPath id="clip0_5_403720">
<rect width="14" height="14" fill="white"/>
</clipPath>
</defs>
</svg>
