<svg width="14" height="14" viewBox="0 0 14 14" fill="none" xmlns="http://www.w3.org/2000/svg">
<g id="icon-wrapper" clip-path="url(#clip0_5_403580)">
<path id="Union" d="M6.99976 5.45565L6.21751 3.89027C6.02326 3.50265 5.68638 2.94527 5.20951 2.49465C4.74051 2.05102 4.17876 1.74915 3.49976 1.74915C2.03326 1.74915 0.874756 2.9094 0.874756 4.30415C0.874756 5.36377 1.35951 6.1119 2.50926 7.2529C2.80413 7.54515 3.14013 7.86102 3.51201 8.20927C4.48151 9.11927 5.68726 10.2515 6.99976 11.7653C8.31226 10.2515 9.51801 9.11927 10.4875 8.20927C10.8594 7.86102 11.1963 7.54427 11.4903 7.2529C12.64 6.1119 13.1248 5.36377 13.1248 4.30415C13.1248 2.9094 11.9663 1.74915 10.4998 1.74915C9.81988 1.74915 9.25901 2.05102 8.79001 2.49465C8.31313 2.94527 7.97626 3.50265 7.78201 3.89027L6.99976 5.45565ZM7.34276 12.7111C7.30062 12.7611 7.2481 12.8012 7.18885 12.8287C7.12961 12.8562 7.06508 12.8705 6.99976 12.8705C6.93443 12.8705 6.8699 12.8562 6.81066 12.8287C6.75141 12.8012 6.69889 12.7611 6.65676 12.7111C5.25588 11.0469 3.98801 9.8569 2.94413 8.87777C1.13726 7.18115 -0.000244141 6.11452 -0.000244141 4.30415C-0.000244141 2.40977 1.56601 0.874146 3.49976 0.874146C4.89976 0.874146 5.87888 1.7929 6.47826 2.63115C6.70576 2.95052 6.87901 3.25765 6.99976 3.49915C7.15113 3.1969 7.32547 2.90671 7.52126 2.63115C8.12063 1.79202 9.09976 0.874146 10.4998 0.874146C12.4335 0.874146 13.9998 2.40977 13.9998 4.30415C13.9998 6.11452 12.8623 7.18115 11.0554 8.87777C10.0115 9.85777 8.74363 11.0478 7.34276 12.7103V12.7111Z" fill="#495057"/>
</g>
<defs>
<clipPath id="clip0_5_403580">
<rect width="14" height="14" fill="white"/>
</clipPath>
</defs>
</svg>
