<svg width="16" height="16" viewBox="0 0 16 16" fill="none" xmlns="http://www.w3.org/2000/svg">
<g id="icon-wrapper" clip-path="url(#clip0_13_443333)">
<g id="Union">
<path d="M8 14.999C6.14348 14.999 4.36301 14.2615 3.05025 12.9488C1.7375 11.636 1 9.85554 1 7.99902C1 6.14251 1.7375 4.36203 3.05025 3.04928C4.36301 1.73652 6.14348 0.999023 8 0.999023C9.85652 0.999023 11.637 1.73652 12.9497 3.04928C14.2625 4.36203 15 6.14251 15 7.99902C15 9.85554 14.2625 11.636 12.9497 12.9488C11.637 14.2615 9.85652 14.999 8 14.999ZM8 15.999C10.1217 15.999 12.1566 15.1562 13.6569 13.6559C15.1571 12.1556 16 10.1208 16 7.99902C16 5.87729 15.1571 3.84246 13.6569 2.34217C12.1566 0.841878 10.1217 -0.000976562 8 -0.000976562C5.87827 -0.000976562 3.84344 0.841878 2.34315 2.34217C0.842855 3.84246 0 5.87729 0 7.99902C0 10.1208 0.842855 12.1556 2.34315 13.6559C3.84344 15.1562 5.87827 15.999 8 15.999Z" fill="#212529"/>
<path d="M5.255 5.78502C5.25363 5.81732 5.25888 5.84955 5.27043 5.87974C5.28198 5.90993 5.29958 5.93744 5.32216 5.96057C5.34473 5.98371 5.3718 6.00198 5.40169 6.01427C5.43159 6.02656 5.46368 6.0326 5.496 6.03202H6.321C6.459 6.03202 6.569 5.91902 6.587 5.78202C6.677 5.12602 7.127 4.64802 7.929 4.64802C8.615 4.64802 9.243 4.99102 9.243 5.81602C9.243 6.45102 8.869 6.74302 8.278 7.18702C7.605 7.67602 7.072 8.24702 7.11 9.17402L7.113 9.39102C7.11405 9.45663 7.14085 9.5192 7.18762 9.56522C7.23439 9.61124 7.29738 9.63703 7.363 9.63702H8.174C8.2403 9.63702 8.30389 9.61068 8.35078 9.5638C8.39766 9.51692 8.424 9.45333 8.424 9.38702V9.28202C8.424 8.56402 8.697 8.35502 9.434 7.79602C10.043 7.33302 10.678 6.81902 10.678 5.74002C10.678 4.22902 9.402 3.49902 8.005 3.49902C6.738 3.49902 5.35 4.08902 5.255 5.78502ZM6.812 11.548C6.812 12.081 7.237 12.475 7.822 12.475C8.431 12.475 8.85 12.081 8.85 11.548C8.85 10.996 8.43 10.608 7.821 10.608C7.237 10.608 6.812 10.996 6.812 11.548Z" fill="#212529"/>
</g>
</g>
<defs>
<clipPath id="clip0_13_443333">
<rect width="16" height="16" fill="white"/>
</clipPath>
</defs>
</svg>
