<svg width="16" height="16" viewBox="0 0 16 16" fill="none" xmlns="http://www.w3.org/2000/svg">
<g id="icon-wrapper">
<g id="Union">
<path fill-rule="evenodd" clip-rule="evenodd" d="M5 11.499C5 11.3664 5.05268 11.2392 5.14645 11.1455C5.24021 11.0517 5.36739 10.999 5.5 10.999H14.5C14.6326 10.999 14.7598 11.0517 14.8536 11.1455C14.9473 11.2392 15 11.3664 15 11.499C15 11.6316 14.9473 11.7588 14.8536 11.8526C14.7598 11.9463 14.6326 11.999 14.5 11.999H5.5C5.36739 11.999 5.24021 11.9463 5.14645 11.8526C5.05268 11.7588 5 11.6316 5 11.499ZM5 7.49901C5 7.3664 5.05268 7.23922 5.14645 7.14545C5.24021 7.05169 5.36739 6.99901 5.5 6.99901H14.5C14.6326 6.99901 14.7598 7.05169 14.8536 7.14545C14.9473 7.23922 15 7.3664 15 7.49901C15 7.63162 14.9473 7.75879 14.8536 7.85256C14.7598 7.94633 14.6326 7.99901 14.5 7.99901H5.5C5.36739 7.99901 5.24021 7.94633 5.14645 7.85256C5.05268 7.75879 5 7.63162 5 7.49901ZM5 3.49901C5 3.3664 5.05268 3.23922 5.14645 3.14545C5.24021 3.05169 5.36739 2.99901 5.5 2.99901H14.5C14.6326 2.99901 14.7598 3.05169 14.8536 3.14545C14.9473 3.23922 15 3.3664 15 3.49901C15 3.63162 14.9473 3.75879 14.8536 3.85256C14.7598 3.94633 14.6326 3.99901 14.5 3.99901H5.5C5.36739 3.99901 5.24021 3.94633 5.14645 3.85256C5.05268 3.75879 5 3.63162 5 3.49901Z" fill="#212529"/>
<path d="M1.713 11.864V11.39H2C2.217 11.39 2.363 11.253 2.363 11.073C2.363 10.888 2.205 10.763 2.002 10.763C1.779 10.763 1.635 10.915 1.629 11.073H1.039C1.055 10.606 1.412 10.286 2.025 10.286C2.613 10.284 2.979 10.577 2.982 10.989C2.98389 11.1303 2.93543 11.2677 2.84528 11.3765C2.75513 11.4854 2.62919 11.5586 2.49 11.583V11.616C2.64781 11.6278 2.79501 11.6999 2.90098 11.8175C3.00696 11.935 3.06356 12.0888 3.059 12.247C3.062 12.78 2.557 13.047 2.008 13.047C1.352 13.047 1.008 12.677 1 12.253H1.582C1.59 12.431 1.768 12.559 2.004 12.562C2.258 12.562 2.428 12.417 2.426 12.212C2.424 12.017 2.271 11.864 2.012 11.864H1.712H1.713ZM1.709 7.16501H1.105V7.13001C1.105 6.72201 1.4 6.28601 2.063 6.28601C2.646 6.28601 3.023 6.61201 3.023 7.04201C3.023 7.43101 2.766 7.65901 2.547 7.89001L2.01 8.46201V8.49201H3.064V8.99901H1.143V8.60401L2.1 7.61401C2.238 7.47201 2.393 7.31001 2.393 7.10601C2.393 6.92601 2.246 6.78601 2.051 6.78601C2.00598 6.78436 1.9611 6.79194 1.91913 6.80829C1.87715 6.82464 1.83897 6.84941 1.80693 6.88107C1.77489 6.91274 1.74967 6.95063 1.73283 6.99241C1.71599 7.03419 1.70788 7.07897 1.709 7.12401V7.16501ZM2.564 4.99901H1.929V2.92301H1.898L1.3 3.34301V2.77601L1.929 2.33301H2.564V4.99901Z" fill="#212529"/>
</g>
</g>
</svg>
