<svg width="16" height="16" viewBox="0 0 16 16" fill="none" xmlns="http://www.w3.org/2000/svg">
<g id="icon-wrapper" clip-path="url(#clip0_3_80126)">
<path id="Union" d="M8 15.999C10.1217 15.999 12.1566 15.1562 13.6569 13.6559C15.1571 12.1556 16 10.1208 16 7.99902C16 5.87729 15.1571 3.84246 13.6569 2.34217C12.1566 0.841878 10.1217 -0.000976562 8 -0.000976562C5.87827 -0.000976562 3.84344 0.841878 2.34315 2.34217C0.842855 3.84246 0 5.87729 0 7.99902C0 10.1208 0.842855 12.1556 2.34315 13.6559C3.84344 15.1562 5.87827 15.999 8 15.999ZM8.93 6.58702L7.93 11.292C7.86 11.632 7.959 11.825 8.234 11.825C8.428 11.825 8.721 11.755 8.92 11.579L8.832 11.995C8.545 12.341 7.912 12.593 7.367 12.593C6.664 12.593 6.365 12.171 6.559 11.274L7.297 7.80602C7.361 7.51302 7.303 7.40702 7.01 7.33602L6.559 7.25502L6.641 6.87402L8.931 6.58702H8.93ZM8 5.49902C7.73478 5.49902 7.48043 5.39367 7.29289 5.20613C7.10536 5.01859 7 4.76424 7 4.49902C7 4.23381 7.10536 3.97945 7.29289 3.79192C7.48043 3.60438 7.73478 3.49902 8 3.49902C8.26522 3.49902 8.51957 3.60438 8.70711 3.79192C8.89464 3.97945 9 4.23381 9 4.49902C9 4.76424 8.89464 5.01859 8.70711 5.20613C8.51957 5.39367 8.26522 5.49902 8 5.49902Z" fill="#2666A0"/>
</g>
<defs>
<clipPath id="clip0_3_80126">
<rect width="16" height="16" fill="white"/>
</clipPath>
</defs>
</svg>
