<svg width="16" height="16" viewBox="0 0 16 16" fill="none" xmlns="http://www.w3.org/2000/svg">
<rect width="16" height="16" fill="white" fill-opacity="0.01"/>
<g clip-path="url(#clip0_15_435977)">
<rect width="14" height="14" transform="translate(1 1)" fill="white" fill-opacity="0.01"/>
<g clip-path="url(#clip1_15_435977)">
<path d="M1 4.49915C1 4.03502 1.18437 3.5899 1.51256 3.26171C1.84075 2.93352 2.28587 2.74915 2.75 2.74915H13.25C13.7141 2.74915 14.1592 2.93352 14.4874 3.26171C14.8156 3.5899 15 4.03502 15 4.49915V11.4991C15 11.9633 14.8156 12.4084 14.4874 12.7366C14.1592 13.0648 13.7141 13.2491 13.25 13.2491H2.75C2.28587 13.2491 1.84075 13.0648 1.51256 12.7366C1.18437 12.4084 1 11.9633 1 11.4991V4.49915ZM2.75 3.62415C2.51794 3.62415 2.29538 3.71633 2.13128 3.88043C1.96719 4.04452 1.875 4.26708 1.875 4.49915V4.68902L8 8.36402L14.125 4.68902V4.49915C14.125 4.26708 14.0328 4.04452 13.8687 3.88043C13.7046 3.71633 13.4821 3.62415 13.25 3.62415H2.75ZM14.125 5.70927L10.0055 8.18115L14.125 10.716V5.70927ZM14.0952 11.7258L9.16025 8.68865L8 9.38427L6.83975 8.68865L1.90475 11.7249C1.95447 11.9111 2.06428 12.0757 2.21712 12.1931C2.36996 12.3105 2.55728 12.3741 2.75 12.3741H13.25C13.4426 12.3742 13.6298 12.3106 13.7827 12.1934C13.9355 12.0762 14.0454 11.9118 14.0952 11.7258ZM1.875 10.716L5.9945 8.18115L1.875 5.70927V10.716Z" fill="#6C757D"/>
</g>
</g>
<defs>
<clipPath id="clip0_15_435977">
<rect width="14" height="14" fill="white" transform="translate(1 1)"/>
</clipPath>
<clipPath id="clip1_15_435977">
<rect width="14" height="14" fill="white" transform="translate(1 1)"/>
</clipPath>
</defs>
</svg>
