<svg width="14" height="14" viewBox="0 0 14 14" fill="none" xmlns="http://www.w3.org/2000/svg">
<g id="icon-wrapper" clip-path="url(#clip0_5_403682)">
<path id="Union" fill-rule="evenodd" clip-rule="evenodd" d="M6.99976 0.874187C6.65504 0.874187 6.31369 0.942085 5.99521 1.074C5.67673 1.20592 5.38735 1.39928 5.1436 1.64303C4.89985 1.88679 4.70649 2.17616 4.57457 2.49464C4.44265 2.81312 4.37476 3.15447 4.37476 3.49919C4.37476 3.84391 4.44265 4.18525 4.57457 4.50373C4.70649 4.82221 4.89985 5.11159 5.1436 5.35534C5.38735 5.5991 5.67673 5.79245 5.99521 5.92437C6.31369 6.05629 6.65504 6.12419 6.99976 6.12419C7.69595 6.12419 8.36363 5.84763 8.85591 5.35534C9.34819 4.86306 9.62476 4.19538 9.62476 3.49919C9.62476 2.80299 9.34819 2.13532 8.85591 1.64303C8.36363 1.15075 7.69595 0.874187 6.99976 0.874187V0.874187ZM3.49976 3.49919C3.49982 2.82563 3.69423 2.16641 4.05966 1.60061C4.4251 1.0348 4.94603 0.586463 5.55995 0.309381C6.17387 0.0322987 6.8547 -0.0617544 7.52075 0.038507C8.1868 0.138768 8.80977 0.429085 9.31491 0.874622C9.82005 1.32016 10.1859 1.90199 10.3686 2.5503C10.5513 3.19861 10.543 3.88585 10.3447 4.52958C10.1465 5.1733 9.76676 5.74615 9.25103 6.17939C8.73531 6.61264 8.10553 6.88787 7.43726 6.97206V11.8117C7.43726 11.9277 7.39116 12.039 7.30912 12.121C7.22707 12.2031 7.11579 12.2492 6.99976 12.2492C6.88372 12.2492 6.77244 12.2031 6.6904 12.121C6.60835 12.039 6.56226 11.9277 6.56226 11.8117V6.97294C5.7161 6.86633 4.93798 6.45444 4.37407 5.81464C3.81015 5.17484 3.49925 4.35116 3.49976 3.49831V3.49919ZM5.68113 11.0014C5.70011 11.1158 5.67289 11.2331 5.60545 11.3274C5.53802 11.4218 5.43589 11.4855 5.32151 11.5046C4.69851 11.6078 4.20151 11.7627 3.87338 11.9359C3.75284 11.9939 3.6433 12.0723 3.54963 12.1678C3.52846 12.1909 3.51157 12.2176 3.49976 12.2466V12.2492L3.50151 12.2562C3.50495 12.2664 3.50965 12.2761 3.51551 12.2851C3.55004 12.3357 3.59295 12.3801 3.64238 12.4163C3.78676 12.5301 4.02301 12.6526 4.35376 12.7619C5.01088 12.9807 5.94626 13.1242 6.99976 13.1242C8.05326 13.1242 8.98863 12.9816 9.64576 12.7619C9.97651 12.6517 10.2128 12.5301 10.3571 12.4163C10.4069 12.3801 10.4501 12.3357 10.4849 12.2851C10.4904 12.276 10.4948 12.2663 10.498 12.2562L10.4998 12.2492V12.2457C10.4879 12.2167 10.4711 12.19 10.4499 12.1669C10.3562 12.0718 10.2466 11.9936 10.1261 11.9359C9.79713 11.7627 9.30101 11.6078 8.67801 11.5046C8.61997 11.4967 8.56411 11.4773 8.51373 11.4474C8.46335 11.4176 8.41947 11.3779 8.3847 11.3308C8.34993 11.2836 8.32498 11.23 8.31132 11.1731C8.29766 11.1161 8.29557 11.057 8.30518 10.9992C8.31479 10.9415 8.3359 10.8862 8.36726 10.8368C8.39861 10.7873 8.43958 10.7446 8.48773 10.7113C8.53589 10.678 8.59024 10.6546 8.64757 10.6427C8.70491 10.6308 8.76405 10.6305 8.82151 10.6418C9.49526 10.7529 10.092 10.9288 10.5339 11.1616C10.9373 11.3742 11.3748 11.7242 11.3748 12.2492C11.3748 12.6219 11.1473 12.9072 10.8988 13.1041C10.645 13.3036 10.3038 13.4654 9.92226 13.5923C9.15401 13.8487 8.12063 13.9992 6.99976 13.9992C5.87888 13.9992 4.84551 13.8487 4.07726 13.5923C3.69576 13.4654 3.35451 13.3036 3.10076 13.1041C2.85226 12.9072 2.62476 12.6219 2.62476 12.2492C2.62476 11.7251 3.06226 11.3742 3.46563 11.1616C3.90751 10.9288 4.50426 10.7529 5.17801 10.6418C5.29241 10.6228 5.40966 10.6501 5.504 10.7175C5.59834 10.7849 5.66205 10.8871 5.68113 11.0014Z" fill="#495057"/>
</g>
<defs>
<clipPath id="clip0_5_403682">
<rect width="14" height="14" fill="white"/>
</clipPath>
</defs>
</svg>
