<svg width="14" height="14" viewBox="0 0 14 14" fill="none" xmlns="http://www.w3.org/2000/svg">
<g id="icon-wrapper" clip-path="url(#clip0_5_403644)">
<path id="Union" d="M2.58101 0.349207C2.66251 0.240535 2.7682 0.152332 2.88969 0.0915828C3.01119 0.0308335 3.14517 -0.000793457 3.28101 -0.000793457H10.7185C10.8543 -0.000793457 10.9883 0.0308335 11.1098 0.0915828C11.2313 0.152332 11.337 0.240535 11.4185 0.349207L13.9123 3.67421C13.9691 3.74994 13.9998 3.84204 13.9998 3.93671V13.1242C13.9998 13.3563 13.9076 13.5788 13.7435 13.7429C13.5794 13.907 13.3568 13.9992 13.1248 13.9992H0.874756C0.642691 13.9992 0.420132 13.907 0.256037 13.7429C0.0919431 13.5788 -0.000244141 13.3563 -0.000244141 13.1242V3.93671C-0.000244141 3.84204 0.0304587 3.74994 0.0872559 3.67421L2.58101 0.349207ZM6.56226 0.874207H3.28101L1.31226 3.49921H6.56226V0.874207ZM7.43726 0.874207V3.49921H12.6873L10.7185 0.874207H7.43726ZM13.1248 4.37421H0.874756V13.1242H13.1248V4.37421Z" fill="#495057"/>
</g>
<defs>
<clipPath id="clip0_5_403644">
<rect width="14" height="14" fill="white"/>
</clipPath>
</defs>
</svg>
