<svg width="16" height="17" viewBox="0 0 16 17" fill="none" xmlns="http://www.w3.org/2000/svg">
<g id="icon-wrapper" clip-path="url(#clip0_15_435776)">
<path id="Union" fill-rule="evenodd" clip-rule="evenodd" d="M14 4.99915V14.4991C14 15.0296 13.7893 15.5383 13.4142 15.9134C13.0391 16.2884 12.5304 16.4991 12 16.4991H11V15.4991H12C12.2652 15.4991 12.5196 15.3938 12.7071 15.2063C12.8946 15.0187 13 14.7644 13 14.4991V4.99915H11C10.6022 4.99915 10.2206 4.84111 9.93934 4.55981C9.65804 4.2785 9.5 3.89697 9.5 3.49915V1.49915H4C3.73478 1.49915 3.48043 1.6045 3.29289 1.79204C3.10536 1.97958 3 2.23393 3 2.49915V11.4991H2V2.49915C2 1.96871 2.21071 1.46 2.58579 1.08493C2.96086 0.709859 3.46957 0.499146 4 0.499146H9.5L14 4.99915ZM1.6 12.3491H0V16.3481H0.791V15.0061H1.594C1.881 15.0061 2.125 14.9491 2.326 14.8331C2.529 14.7161 2.684 14.5581 2.789 14.3591C2.89799 14.1503 2.95331 13.9177 2.95 13.6821C2.95 13.4321 2.897 13.2061 2.792 13.0051C2.68756 12.8053 2.52789 12.6398 2.332 12.5281C2.132 12.4081 1.889 12.3491 1.6 12.3491ZM2.145 13.6821C2.1486 13.8139 2.1194 13.9445 2.06 14.0621C2.00671 14.1646 1.92377 14.2486 1.822 14.3031C1.70559 14.3607 1.57683 14.3889 1.447 14.3851H0.788V12.9791H1.448C1.666 12.9791 1.837 13.0391 1.96 13.1601C2.083 13.2821 2.145 13.4561 2.145 13.6821ZM3.362 12.3491V16.3481H4.822C5.223 16.3481 5.556 16.2681 5.82 16.1111C6.08716 15.9513 6.29577 15.7097 6.415 15.4221C6.545 15.1221 6.611 14.7601 6.611 14.3381C6.611 13.9181 6.546 13.5601 6.415 13.2631C6.29718 12.9789 6.09056 12.7403 5.826 12.5831C5.562 12.4271 5.227 12.3491 4.821 12.3491H3.362ZM4.153 12.9941H4.716C4.964 12.9941 5.166 13.0441 5.325 13.1461C5.49004 13.2541 5.61456 13.4138 5.679 13.6001C5.758 13.8011 5.797 14.0521 5.797 14.3531C5.8001 14.5526 5.77724 14.7516 5.729 14.9451C5.69337 15.0978 5.62665 15.2414 5.533 15.3671C5.44599 15.4793 5.33072 15.5663 5.199 15.6191C5.04466 15.6769 4.88075 15.7047 4.716 15.7011H4.153V12.9941ZM7.896 14.7571V16.3481H7.106V12.3491H9.654V13.0021H7.896V14.1191H9.502V14.7571H7.896Z" fill="#495057"/>
</g>
<defs>
<clipPath id="clip0_15_435776">
<rect width="16" height="16" fill="white" transform="translate(0 0.5)"/>
</clipPath>
</defs>
</svg>
