<svg width="16" height="16" viewBox="0 0 16 16" fill="none" xmlns="http://www.w3.org/2000/svg">
<rect width="16" height="16" fill="white" fill-opacity="0.01"/>
<g clip-path="url(#clip0_15_435957)">
<rect width="14" height="14" transform="translate(1 1)" fill="white" fill-opacity="0.01"/>
<g clip-path="url(#clip1_15_435957)">
<path d="M4.19669 2.16116C4.14503 2.09471 4.07983 2.04002 4.00541 2.00071C3.931 1.9614 3.84907 1.93837 3.76506 1.93315C3.68106 1.92794 3.59691 1.94066 3.51821 1.97047C3.4395 2.00027 3.36804 2.04649 3.30856 2.10603L2.40381 3.01166C1.98119 3.43516 1.82544 4.03453 2.01006 4.56041C2.77633 6.73705 4.02282 8.71324 5.65706 10.3424C7.28625 11.9766 9.26243 13.2231 11.4391 13.9894C11.9649 14.174 12.5643 14.0183 12.9878 13.5957L13.8926 12.6909C13.9521 12.6314 13.9983 12.56 14.0281 12.4813C14.0579 12.4026 14.0707 12.3184 14.0654 12.2344C14.0602 12.1504 14.0372 12.0685 13.9979 11.9941C13.9586 11.9196 13.9039 11.8544 13.8374 11.8028L11.8188 10.233C11.7478 10.178 11.6653 10.1398 11.5773 10.1213C11.4894 10.1028 11.3985 10.1045 11.3113 10.1263L9.39506 10.6049C9.13928 10.6688 8.8713 10.6654 8.61722 10.5951C8.36314 10.5247 8.13162 10.3897 7.94519 10.2033L5.79619 8.05341C5.60961 7.86707 5.47447 7.63558 5.40393 7.3815C5.3334 7.12741 5.32987 6.85939 5.39369 6.60353L5.87319 4.68728C5.89498 4.60013 5.8967 4.50917 5.8782 4.42125C5.85971 4.33334 5.82149 4.25077 5.76644 4.17978L4.19669 2.16116ZM2.64794 1.44628C2.80106 1.29312 2.98501 1.17427 3.18758 1.09765C3.39015 1.02103 3.60671 0.988377 3.82287 1.00187C4.03903 1.01536 4.24984 1.07468 4.44132 1.17589C4.63279 1.2771 4.80055 1.41789 4.93344 1.58891L6.50319 3.60666C6.79106 3.97678 6.89256 4.45891 6.77881 4.91391L6.30019 6.83016C6.27544 6.92941 6.27678 7.03337 6.30407 7.13196C6.33136 7.23054 6.38367 7.32039 6.45594 7.39278L8.60581 9.54266C8.67829 9.61507 8.76829 9.66747 8.86704 9.69477C8.96579 9.72206 9.06993 9.72332 9.16931 9.69841L11.0847 9.21978C11.3092 9.16364 11.5436 9.15928 11.7701 9.20703C11.9965 9.25478 12.2092 9.35339 12.3919 9.49541L14.4097 11.0652C15.1351 11.6295 15.2016 12.7014 14.5523 13.3498L13.6476 14.2545C13.0001 14.902 12.0323 15.1864 11.1302 14.8688C8.82122 14.0564 6.7248 12.7345 4.99644 11.0013C3.26331 9.27317 1.94147 7.17706 1.12894 4.86841C0.812186 3.96716 1.09656 2.99853 1.74406 2.35103L2.64881 1.44628H2.64794Z" fill="#6C757D"/>
</g>
</g>
<defs>
<clipPath id="clip0_15_435957">
<rect width="14" height="14" fill="white" transform="translate(1 1)"/>
</clipPath>
<clipPath id="clip1_15_435957">
<rect width="14" height="14" fill="white" transform="translate(1 1)"/>
</clipPath>
</defs>
</svg>
