<svg width="32" height="32" fill="none" xmlns="http://www.w3.org/2000/svg"><g clip-path="url(#clip0_2_743461)"><path fill="#fff" fill-opacity=".01" d="M0 0h32v32H0z"/><g clip-path="url(#clip1_2_743461)"><path d="M16-.001a16 16 0 100 32 16 16 0 000-32zm7 15a1 1 0 110 2H11.414l4.294 4.292a1.001 1.001 0 11-1.416 1.416l-6-6a1 1 0 010-1.416l6-6a1.001 1.001 0 011.416 1.416l-4.294 4.292H23z" fill="#000"/></g></g><defs><clipPath id="clip0_2_743461"><path fill="#fff" d="M0 0h32v32H0z"/></clipPath><clipPath id="clip1_2_743461"><path fill="#fff" d="M0 0h32v32H0z"/></clipPath></defs></svg>