<svg width="16" height="16" viewBox="0 0 16 16" fill="none" xmlns="http://www.w3.org/2000/svg">
<path d="M1.85268 14.8527L14.8527 1.85268C14.8992 1.80619 14.936 1.751 14.9612 1.69026C14.9864 1.62952 14.9993 1.56442 14.9993 1.49868C14.9993 1.43293 14.9864 1.36783 14.9612 1.3071C14.936 1.24636 14.8992 1.19117 14.8527 1.14468C14.8062 1.09819 14.751 1.06131 14.6903 1.03616C14.6295 1.011 14.5644 0.998047 14.4987 0.998047C14.4329 0.998047 14.3678 1.011 14.3071 1.03616C14.2464 1.06131 14.1912 1.09819 14.1447 1.14468L1.14468 14.1447C1.09819 14.1912 1.06131 14.2464 1.03616 14.3071C1.011 14.3678 0.998047 14.4329 0.998047 14.4987C0.998047 14.5644 1.011 14.6295 1.03616 14.6903C1.06131 14.751 1.09819 14.8062 1.14468 14.8527C1.23857 14.9466 1.3659 14.9993 1.49868 14.9993C1.56442 14.9993 1.62952 14.9864 1.69026 14.9612C1.751 14.936 1.80619 14.8992 1.85268 14.8527ZM3.99868 0.998679C4.13129 0.998679 4.25846 1.05136 4.35223 1.14513C4.446 1.23889 4.49868 1.36607 4.49868 1.49868V3.49868H6.49868C6.63129 3.49868 6.75846 3.55136 6.85223 3.64513C6.946 3.73889 6.99868 3.86607 6.99868 3.99868C6.99868 4.13129 6.946 4.25846 6.85223 4.35223C6.75846 4.446 6.63129 4.49868 6.49868 4.49868H4.49868V6.49868C4.49868 6.63129 4.446 6.75846 4.35223 6.85223C4.25846 6.946 4.13129 6.99868 3.99868 6.99868C3.86607 6.99868 3.73889 6.946 3.64513 6.85223C3.55136 6.75846 3.49868 6.63129 3.49868 6.49868V4.49868H1.49868C1.36607 4.49868 1.23889 4.446 1.14513 4.35223C1.05136 4.25846 0.998679 4.13129 0.998679 3.99868C0.998679 3.86607 1.05136 3.73889 1.14513 3.64513C1.23889 3.55136 1.36607 3.49868 1.49868 3.49868H3.49868V1.49868C3.49868 1.36607 3.55136 1.23889 3.64513 1.14513C3.73889 1.05136 3.86607 0.998679 3.99868 0.998679ZM8.99868 11.9987C8.99868 11.8661 9.05136 11.7389 9.14512 11.6451C9.23889 11.5514 9.36607 11.4987 9.49868 11.4987H14.4987C14.6313 11.4987 14.7585 11.5514 14.8522 11.6451C14.946 11.7389 14.9987 11.8661 14.9987 11.9987C14.9987 12.1313 14.946 12.2585 14.8522 12.3522C14.7585 12.446 14.6313 12.4987 14.4987 12.4987H9.49868C9.36607 12.4987 9.23889 12.446 9.14512 12.3522C9.05136 12.2585 8.99868 12.1313 8.99868 11.9987Z" fill="#212529"/>
</svg>
