<svg width="17" height="16" viewBox="0 0 17 16" fill="none" xmlns="http://www.w3.org/2000/svg">
<g clip-path="url(#clip0_1_849683)">
<path d="M8.5 1C7.17392 1 5.90215 1.52678 4.96447 2.46447C4.02678 3.40215 3.5 4.67392 3.5 6V7H4.5C4.76522 7 5.01957 7.10536 5.20711 7.29289C5.39464 7.48043 5.5 7.73478 5.5 8V11C5.5 11.2652 5.39464 11.5196 5.20711 11.7071C5.01957 11.8946 4.76522 12 4.5 12H3.5C3.23478 12 2.98043 11.8946 2.79289 11.7071C2.60536 11.5196 2.5 11.2652 2.5 11V6C2.5 5.21207 2.65519 4.43185 2.95672 3.7039C3.25825 2.97595 3.70021 2.31451 4.25736 1.75736C4.81451 1.20021 5.47595 0.758251 6.2039 0.456723C6.93185 0.155195 7.71207 0 8.5 0C9.28793 0 10.0681 0.155195 10.7961 0.456723C11.5241 0.758251 12.1855 1.20021 12.7426 1.75736C13.2998 2.31451 13.7417 2.97595 14.0433 3.7039C14.3448 4.43185 14.5 5.21207 14.5 6V12C14.5 12.663 14.2366 13.2989 13.7678 13.7678C13.2989 14.2366 12.663 14.5 12 14.5H9.866C9.77823 14.652 9.652 14.7783 9.49999 14.866C9.34797 14.9538 9.17553 15 9 15H8C7.73478 15 7.48043 14.8946 7.29289 14.7071C7.10536 14.5196 7 14.2652 7 14C7 13.7348 7.10536 13.4804 7.29289 13.2929C7.48043 13.1054 7.73478 13 8 13H9C9.17553 13 9.34797 13.0462 9.49999 13.134C9.652 13.2217 9.77823 13.348 9.866 13.5H12C12.3978 13.5 12.7794 13.342 13.0607 13.0607C13.342 12.7794 13.5 12.3978 13.5 12H12.5C12.2348 12 11.9804 11.8946 11.7929 11.7071C11.6054 11.5196 11.5 11.2652 11.5 11V8C11.5 7.73478 11.6054 7.48043 11.7929 7.29289C11.9804 7.10536 12.2348 7 12.5 7H13.5V6C13.5 5.34339 13.3707 4.69321 13.1194 4.08658C12.8681 3.47995 12.4998 2.92876 12.0355 2.46447C11.5712 2.00017 11.02 1.63188 10.4134 1.3806C9.80679 1.12933 9.15661 1 8.5 1Z" fill="#212529"/>
</g>
<defs>
<clipPath id="clip0_1_849683">
<rect width="16" height="16" fill="white" transform="translate(0.5)"/>
</clipPath>
</defs>
</svg>
