<svg width="16" height="16" viewBox="0 0 16 16" fill="none" xmlns="http://www.w3.org/2000/svg">
<g clip-path="url(#clip0_1_610476)">
<rect width="16" height="16" fill="white" fill-opacity="0.01"/>
<path fill-rule="evenodd" clip-rule="evenodd" d="M11.3529 1.64494C11.3995 1.69139 11.4364 1.74656 11.4617 1.80731C11.4869 1.86805 11.4998 1.93317 11.4998 1.99894C11.4998 2.06471 11.4869 2.12983 11.4617 2.19057C11.4364 2.25132 11.3995 2.3065 11.3529 2.35294L5.70594 7.99894L11.3529 13.6449C11.4468 13.7388 11.4996 13.8662 11.4996 13.9989C11.4996 14.1317 11.4468 14.2591 11.3529 14.3529C11.2591 14.4468 11.1317 14.4996 10.9989 14.4996C10.8662 14.4996 10.7388 14.4468 10.6449 14.3529L4.64494 8.35294C4.59838 8.30649 4.56143 8.25132 4.53623 8.19057C4.51102 8.12983 4.49805 8.06471 4.49805 7.99894C4.49805 7.93317 4.51102 7.86805 4.53623 7.80731C4.56143 7.74656 4.59838 7.69139 4.64494 7.64494L10.6449 1.64494C10.6914 1.59838 10.7466 1.56143 10.8073 1.53623C10.8681 1.51102 10.9332 1.49805 10.9989 1.49805C11.0647 1.49805 11.1298 1.51102 11.1906 1.53623C11.2513 1.56143 11.3065 1.59838 11.3529 1.64494Z" fill="#212529"/>
</g>
<defs>
<clipPath id="clip0_1_610476">
<rect width="16" height="16" fill="white"/>
</clipPath>
</defs>
</svg>
