<svg width="24" height="25" fill="none" xmlns="http://www.w3.org/2000/svg"><path d="M24.003 12.353a12 12 0 11-24 0 12 12 0 0124 0zm-11.57-3.14a583.493 583.493 0 00-6.999 3.014c-.567.225-.865.447-.892.663-.045.365.412.509 1.035.705l.262.083c.612.2 1.437.432 1.865.44.39.01.823-.15 1.302-.48 3.268-2.206 4.956-3.32 5.06-3.344.076-.018.18-.04.25.024.07.061.063.18.055.211-.045.194-1.84 1.862-2.769 2.726-.29.27-.495.46-.537.504-.092.094-.186.187-.282.279-.57.549-.996.96.023 1.632.49.324.883.59 1.275.856.426.291.852.58 1.404.944.14.09.274.187.405.28.496.354.945.672 1.495.621.321-.03.653-.33.82-1.23.398-2.125 1.18-6.729 1.36-8.626a2.135 2.135 0 00-.02-.473.505.505 0 00-.17-.325.79.79 0 00-.466-.14c-.45.008-1.144.25-4.476 1.635z" fill="#212529"/></svg>