<svg width="24" height="25" fill="none" xmlns="http://www.w3.org/2000/svg"><path d="M12.003.353A12 12 0 007.63 23.531c-.105-.95-.2-2.409.04-3.445.22-.938 1.408-5.966 1.408-5.966s-.359-.718-.359-1.78c0-1.67.968-2.915 2.172-2.915 1.023 0 1.518.768 1.518 1.69 0 1.03-.655 2.569-.994 3.995-.282 1.194.6 2.169 1.777 2.169 2.133 0 3.773-2.25 3.773-5.496 0-2.872-2.066-4.881-5.013-4.881-3.414 0-5.418 2.56-5.418 5.206 0 1.032.397 2.138.892 2.74a.36.36 0 01.084.345c-.091.377-.294 1.194-.333 1.36-.052.219-.174.265-.402.16-1.5-.697-2.436-2.889-2.436-4.65 0-3.784 2.751-7.26 7.93-7.26 4.162 0 7.397 2.966 7.397 6.93 0 4.136-2.608 7.465-6.226 7.465-1.217 0-2.36-.632-2.751-1.379l-.747 2.853c-.272 1.043-1.004 2.349-1.493 3.145A11.999 11.999 0 1012.003.354z" fill="#212529"/></svg>