<svg width="16" height="17" fill="none" xmlns="http://www.w3.org/2000/svg"><g clip-path="url(#clip0_2_741804)"><path d="M16 8.057a8 8 0 11-16 0 8 8 0 0116 0zM8.287 5.963c-.778.324-2.334.994-4.666 2.01-.378.15-.577.298-.595.442-.03.243.275.34.69.47l.175.055c.408.133.958.288 1.243.294.26.006.549-.1.868-.32C8.18 7.444 9.306 6.7 9.376 6.684c.05-.012.12-.026.166.016.047.041.042.12.037.141-.03.13-1.227 1.241-1.846 1.817-.193.18-.33.307-.358.336a8.141 8.141 0 01-.188.186c-.38.366-.664.64.015 1.088.327.216.589.393.85.571.284.194.568.387.936.63.093.06.183.124.27.186.33.236.63.448.997.414.214-.02.435-.22.547-.82.265-1.417.786-4.486.906-5.75a1.42 1.42 0 00-.013-.316.337.337 0 00-.114-.217.526.526 0 00-.31-.093c-.3.005-.763.166-2.984 1.09z" fill="#212529"/></g><defs><clipPath id="clip0_2_741804"><path fill="#fff" transform="translate(0 .058)" d="M0 0h16v16H0z"/></clipPath></defs></svg>