<svg width="16" height="17" fill="none" xmlns="http://www.w3.org/2000/svg"><g clip-path="url(#clip0_2_743770)"><path d="M8 .057A8 8 0 005.085 15.51c-.07-.633-.134-1.606.027-2.297.146-.625.938-3.977.938-3.977s-.24-.479-.24-1.187c0-1.113.646-1.943 1.449-1.943.682 0 1.012.512 1.012 1.127 0 .686-.437 1.712-.663 2.663-.188.796.4 1.446 1.185 1.446 1.422 0 2.515-1.5 2.515-3.664 0-1.915-1.377-3.254-3.342-3.254-2.276 0-3.612 1.707-3.612 3.471 0 .688.265 1.425.595 1.826a.24.24 0 01.056.23c-.061.252-.196.796-.222.907-.035.146-.116.177-.268.107-1-.465-1.624-1.926-1.624-3.1 0-2.523 1.834-4.84 5.286-4.84 2.775 0 4.932 1.977 4.932 4.62 0 2.757-1.74 4.976-4.151 4.976-.811 0-1.573-.42-1.834-.919l-.498 1.902c-.181.695-.67 1.566-.995 2.097A8 8 0 108 .057z" fill="#212529"/></g><defs><clipPath id="clip0_2_743770"><path fill="#fff" transform="translate(0 .058)" d="M0 0h16v16H0z"/></clipPath></defs></svg>