<svg width="16" height="17" fill="none" xmlns="http://www.w3.org/2000/svg"><g clip-path="url(#clip0_2_743005)"><path d="M8 .057c-2.171 0-2.444.01-3.297.048C3.85.145 3.269.28 2.76.477c-.534.2-1.018.516-1.417.923-.407.4-.722.883-.923 1.417-.198.508-.333 1.09-.372 1.94C.01 5.612 0 5.884 0 8.058c0 2.172.01 2.444.048 3.297.04.852.174 1.433.372 1.942.205.526.478.972.923 1.417.444.445.89.72 1.416.923.51.198 1.09.333 1.942.372.854.038 1.126.048 3.299.048s2.444-.01 3.298-.048c.85-.04 1.434-.174 1.943-.372a3.914 3.914 0 001.416-.923 3.92 3.92 0 00.923-1.417c.197-.509.332-1.09.372-1.942.038-.853.048-1.125.048-3.298s-.01-2.445-.048-3.299c-.04-.85-.175-1.433-.372-1.94a3.924 3.924 0 00-.923-1.418A3.91 3.91 0 0013.24.477C12.73.28 12.148.144 11.297.105c-.854-.038-1.125-.048-3.3-.048h.004H8zM7.283 1.5H8c2.136 0 2.389.007 3.232.046.78.035 1.204.166 1.486.275.373.145.64.32.92.6.28.28.453.545.598.92.11.28.24.704.275 1.484.039.843.047 1.096.047 3.231s-.008 2.39-.047 3.232c-.035.78-.166 1.203-.275 1.485a2.468 2.468 0 01-.6.92c-.28.28-.545.452-.92.597-.28.11-.703.24-1.484.276-.843.038-1.096.047-3.232.047s-2.39-.009-3.233-.047c-.78-.036-1.203-.166-1.485-.276a2.477 2.477 0 01-.92-.598 2.48 2.48 0 01-.6-.92c-.11-.28-.24-.705-.275-1.485-.038-.843-.046-1.096-.046-3.233 0-2.136.008-2.388.046-3.23.036-.78.166-1.205.276-1.487.145-.373.319-.64.599-.92.28-.28.546-.453.92-.598.282-.11.705-.24 1.485-.276.738-.034 1.024-.044 2.515-.045V1.5zm4.988 1.328a.96.96 0 100 1.92.96.96 0 000-1.92zM8 3.95a4.109 4.109 0 10-.129 8.217A4.109 4.109 0 008 3.95zm0 1.44a2.667 2.667 0 110 5.334A2.667 2.667 0 018 5.39z" fill="#212529"/></g><defs><clipPath id="clip0_2_743005"><path fill="#fff" transform="translate(0 .058)" d="M0 0h16v16H0z"/></clipPath></defs></svg>