<svg width="24" height="25" fill="none" xmlns="http://www.w3.org/2000/svg"><path d="M12.003.353c-3.257 0-3.666.015-4.946.072-1.28.06-2.15.261-2.914.558-.8.301-1.526.774-2.126 1.385A5.89 5.89 0 00.633 4.493c-.297.762-.5 1.635-.558 2.91-.057 1.283-.072 1.69-.072 4.952 0 3.258.015 3.666.072 4.945.06 1.278.26 2.15.558 2.913a5.894 5.894 0 001.384 2.126 5.856 5.856 0 002.124 1.384c.765.297 1.635.5 2.913.558 1.281.057 1.69.072 4.949.072 3.26 0 3.666-.015 4.947-.072 1.276-.06 2.15-.26 2.914-.558a5.873 5.873 0 002.124-1.384 5.894 5.894 0 001.385-2.126c.295-.763.498-1.635.558-2.913.057-1.28.072-1.687.072-4.947s-.015-3.667-.072-4.948c-.06-1.277-.263-2.15-.558-2.912a5.888 5.888 0 00-1.385-2.125A5.866 5.866 0 0019.863.983c-.765-.297-1.638-.5-2.915-.558C15.668.368 15.261.353 12 .353h.004-.001zm-1.076 2.163h1.077c3.204 0 3.584.01 4.848.07 1.17.052 1.806.248 2.23.412.559.217.96.478 1.38.898.42.42.679.82.896 1.38.165.422.36 1.058.413 2.228.058 1.264.07 1.644.07 4.846 0 3.203-.012 3.584-.07 4.848-.053 1.17-.25 1.805-.413 2.228-.192.52-.499.992-.898 1.378-.42.42-.82.68-1.38.897-.42.165-1.056.36-2.228.414-1.264.057-1.644.07-4.848.07-3.204 0-3.585-.013-4.85-.07-1.17-.054-1.804-.249-2.227-.414a3.718 3.718 0 01-1.38-.897 3.72 3.72 0 01-.9-1.38c-.163-.421-.36-1.057-.412-2.227-.057-1.265-.07-1.644-.07-4.85 0-3.204.013-3.582.07-4.846.054-1.17.249-1.806.414-2.23a3.72 3.72 0 01.898-1.38c.42-.42.82-.679 1.38-.896.423-.165 1.058-.36 2.228-.414 1.107-.051 1.536-.066 3.772-.068v.003zm7.482 1.992a1.44 1.44 0 100 2.88 1.44 1.44 0 000-2.88zm-6.405 1.683a6.164 6.164 0 10-.192 12.326 6.164 6.164 0 00.192-12.326zm0 2.162a4 4 0 110 8 4 4 0 010-8z" fill="#212529"/></svg>