<svg width="16" height="17" fill="none" xmlns="http://www.w3.org/2000/svg"><g clip-path="url(#clip0_2_741833)"><path d="M16 8.106c0-4.446-3.582-8.05-8-8.05C3.58.057-.002 3.66-.002 8.107c0 4.017 2.926 7.347 6.75 7.951v-5.625h-2.03V8.107H6.75V6.332c0-2.017 1.195-3.13 3.022-3.13.876 0 1.79.156 1.79.156v1.98h-1.008c-.993 0-1.303.621-1.303 1.258v1.51h2.218l-.354 2.326H9.25v5.625c3.824-.604 6.75-3.934 6.75-7.95z" fill="#212529"/></g><defs><clipPath id="clip0_2_741833"><path fill="#fff" transform="translate(0 .058)" d="M0 0h16v16H0z"/></clipPath></defs></svg>