<svg width="24" height="25" fill="none" xmlns="http://www.w3.org/2000/svg"><path d="M12.08 3.352h.133c1.233.004 7.48.05 9.165.502a3.015 3.015 0 012.122 2.13c.152.57.258 1.325.33 2.103l.015.156.033.39.012.156a48.48 48.48 0 01.111 2.936v.112a48.123 48.123 0 01-.123 3.09l-.012.158-.013.156c-.075.858-.186 1.71-.353 2.337a3.01 3.01 0 01-2.122 2.13c-1.74.468-8.354.5-9.27.502h-.213c-.464 0-2.38-.009-4.39-.078l-.256-.009-.13-.006-.257-.01-.256-.01c-1.665-.074-3.25-.193-3.981-.39a3.011 3.011 0 01-2.123-2.13C.336 16.953.225 16.1.15 15.242l-.012-.158-.012-.156a47.102 47.102 0 01-.123-3.054v-.184a48.97 48.97 0 01.096-2.667l.01-.155.005-.078.012-.156.033-.39.015-.156c.072-.778.178-1.534.33-2.103a3.01 3.01 0 012.122-2.13c.73-.195 2.316-.315 3.981-.39l.255-.01.258-.01.13-.004.256-.01c1.427-.046 2.856-.072 4.284-.077h.29v-.001zM9.602 8.167v7.227l6.235-3.612-6.235-3.615z" fill="#212529"/></svg>