<svg width="17" height="17" viewBox="0 0 17 17" fill="none" xmlns="http://www.w3.org/2000/svg">
<g id="wrapper">
<path id="Union" d="M6.50195 11.0011C6.50195 10.8685 6.55463 10.7413 6.6484 10.6475C6.74217 10.5538 6.86934 10.5011 7.00195 10.5011H10.002C10.1346 10.5011 10.2617 10.5538 10.3555 10.6475C10.4493 10.7413 10.502 10.8685 10.502 11.0011C10.502 11.1337 10.4493 11.2609 10.3555 11.3547C10.2617 11.4484 10.1346 11.5011 10.002 11.5011H7.00195C6.86934 11.5011 6.74217 11.4484 6.6484 11.3547C6.55463 11.2609 6.50195 11.1337 6.50195 11.0011ZM4.50195 8.0011C4.50195 7.86849 4.55463 7.74131 4.6484 7.64755C4.74217 7.55378 4.86934 7.5011 5.00195 7.5011H12.002C12.1346 7.5011 12.2617 7.55378 12.3555 7.64755C12.4493 7.74131 12.502 7.86849 12.502 8.0011C12.502 8.13371 12.4493 8.26088 12.3555 8.35465C12.2617 8.44842 12.1346 8.5011 12.002 8.5011H5.00195C4.86934 8.5011 4.74217 8.44842 4.6484 8.35465C4.55463 8.26088 4.50195 8.13371 4.50195 8.0011ZM2.50195 5.0011C2.50195 4.86849 2.55463 4.74131 2.6484 4.64755C2.74217 4.55378 2.86934 4.5011 3.00195 4.5011H14.002C14.1346 4.5011 14.2617 4.55378 14.3555 4.64755C14.4493 4.74131 14.502 4.86849 14.502 5.0011C14.502 5.13371 14.4493 5.26088 14.3555 5.35465C14.2617 5.44842 14.1346 5.5011 14.002 5.5011H3.00195C2.86934 5.5011 2.74217 5.44842 2.6484 5.35465C2.55463 5.26088 2.50195 5.13371 2.50195 5.0011Z" fill="#FDC305"/>
</g>
</svg>
