<svg width="16" height="16" viewBox="0 0 16 16" fill="none" xmlns="http://www.w3.org/2000/svg">
<g id="icon-wrapper" clip-path="url(#clip0_3_90235)">
<path id="Union" d="M2.18279e-09 3.49902C2.18279e-09 3.1012 0.158035 2.71967 0.43934 2.43836C0.720644 2.15706 1.10218 1.99902 1.5 1.99902H10.5C10.8978 1.99902 11.2794 2.15706 11.5607 2.43836C11.842 2.71967 12 3.1012 12 3.49902V4.99902H13.02C13.2447 4.99922 13.4666 5.04992 13.6691 5.14737C13.8716 5.24482 14.0496 5.38653 14.19 5.56202L15.671 7.41202C15.8841 7.67821 16.0001 8.00905 16 8.35002V10.499C16 10.8968 15.842 11.2784 15.5607 11.5597C15.2794 11.841 14.8978 11.999 14.5 11.999H14C14 12.5295 13.7893 13.0382 13.4142 13.4132C13.0391 13.7883 12.5304 13.999 12 13.999C11.4696 13.999 10.9609 13.7883 10.5858 13.4132C10.2107 13.0382 10 12.5295 10 11.999H5C5.00058 12.2656 4.94785 12.5296 4.84492 12.7755C4.742 13.0214 4.59094 13.2443 4.40065 13.431C4.21035 13.6177 3.98465 13.7645 3.73682 13.8627C3.48899 13.9609 3.22402 14.0086 2.95749 14.0029C2.69097 13.9972 2.42827 13.9383 2.18483 13.8297C1.94139 13.721 1.72214 13.5648 1.53995 13.3702C1.35776 13.1756 1.21632 12.9465 1.12393 12.6964C1.03155 12.4464 0.990095 12.1803 1.002 11.914C0.709048 11.8109 0.455323 11.6194 0.275844 11.366C0.0963656 11.1125 -1.6752e-05 10.8096 2.18279e-09 10.499V3.49902ZM1.294 10.955C1.4748 10.659 1.72951 10.4151 2.0331 10.2474C2.33669 10.0796 2.6787 9.99374 3.02553 9.99818C3.37235 10.0026 3.71206 10.0972 4.01125 10.2727C4.31045 10.4482 4.55883 10.6985 4.732 10.999H10.268C10.4439 10.6953 10.6963 10.4429 11 10.267V3.49902C11 3.36642 10.9473 3.23924 10.8536 3.14547C10.7598 3.0517 10.6326 2.99902 10.5 2.99902H1.5C1.36739 2.99902 1.24021 3.0517 1.14645 3.14547C1.05268 3.23924 1 3.36642 1 3.49902V10.499C0.999921 10.5953 1.02762 10.6895 1.07977 10.7704C1.13192 10.8513 1.20631 10.9154 1.294 10.955ZM12 9.99902C12.3511 9.99903 12.6959 10.0914 13 10.267C13.304 10.4425 13.5565 10.695 13.732 10.999H14.5C14.6326 10.999 14.7598 10.9463 14.8536 10.8526C14.9473 10.7588 15 10.6316 15 10.499V8.34902C14.9998 8.23556 14.961 8.12553 14.89 8.03702L13.41 6.18702C13.3632 6.12846 13.3039 6.08116 13.2364 6.04862C13.1689 6.01608 13.0949 5.99913 13.02 5.99902H12V9.99902ZM3 10.999C2.73478 10.999 2.48043 11.1044 2.29289 11.2919C2.10536 11.4795 2 11.7338 2 11.999C2 12.2642 2.10536 12.5186 2.29289 12.7061C2.48043 12.8937 2.73478 12.999 3 12.999C3.26522 12.999 3.51957 12.8937 3.70711 12.7061C3.89464 12.5186 4 12.2642 4 11.999C4 11.7338 3.89464 11.4795 3.70711 11.2919C3.51957 11.1044 3.26522 10.999 3 10.999ZM12 10.999C11.7348 10.999 11.4804 11.1044 11.2929 11.2919C11.1054 11.4795 11 11.7338 11 11.999C11 12.2642 11.1054 12.5186 11.2929 12.7061C11.4804 12.8937 11.7348 12.999 12 12.999C12.2652 12.999 12.5196 12.8937 12.7071 12.7061C12.8946 12.5186 13 12.2642 13 11.999C13 11.7338 12.8946 11.4795 12.7071 11.2919C12.5196 11.1044 12.2652 10.999 12 10.999Z" fill="#212529"/>
</g>
<defs>
<clipPath id="clip0_3_90235">
<rect width="16" height="16" fill="white"/>
</clipPath>
</defs>
</svg>
