<svg width="16" height="17" fill="none" xmlns="http://www.w3.org/2000/svg"><g fill="#6C757D" clip-path="url(#clip0_2_741942)"><path d="M16 8.058s-3-5.5-8-5.5-8 5.5-8 5.5 3 5.5 8 5.5 8-5.5 8-5.5zm-14.827 0c.483-.735 1.04-1.42 1.66-2.043C4.12 4.726 5.88 3.558 8 3.558c2.12 0 3.879 1.168 5.168 2.457a13.13 13.13 0 011.66 2.043c-.058.087-.122.183-.195.288-.335.48-.83 1.12-1.465 1.755-1.29 1.29-3.05 2.457-5.168 2.457-2.12 0-3.88-1.168-5.168-2.457a13.127 13.127 0 01-1.66-2.043z"/><path d="M8 5.558a2.5 2.5 0 100 5 2.5 2.5 0 000-5zm-3.5 2.5a3.5 3.5 0 117 0 3.5 3.5 0 01-7 0z"/></g><defs><clipPath id="clip0_2_741942"><path fill="#fff" transform="translate(0 .06)" d="M0 0h16v16H0z"/></clipPath></defs></svg>